<?xml version="1.0" encoding="UTF-8"?>
<svg version="1.1" xmlns="http://www.w3.org/2000/svg" width="861" height="861">
<path d="M0 0 C5.05142998 0.74816477 10.10724952 1.46546345 15.16266322 2.18612289 C24.68523189 3.54784975 34.20412135 4.93357656 43.72168845 6.32979107 C60.81431235 8.83631894 77.91337229 11.29846802 95.01324528 13.75498676 C100.9944441 14.6151848 106.97408605 15.48531823 112.95256603 16.36420822 C116.66282332 16.90846408 120.37395503 17.44657815 124.08529353 17.98340607 C125.79525887 18.23218442 127.50483666 18.48364469 129.21396899 18.73808289 C144.22187395 20.97040972 158.12353235 20.6472391 173.19307399 19.2810936 C174.97661485 19.12302341 176.76019556 18.9654024 178.54381251 18.80819321 C182.36729173 18.47036013 186.19049864 18.12964131 190.01352382 17.78670883 C196.07639826 17.24314422 202.13997669 16.70773915 208.20369411 16.17367172 C224.35603179 14.74981639 240.50749072 13.31610301 256.65838456 11.87596512 C267.27598575 10.92923359 277.89399066 9.98732738 288.5128119 9.05437088 C294.52192424 8.52603968 300.53031026 7.99027821 306.5382421 7.44869614 C310.3015333 7.11123297 314.06542185 6.78083565 317.82949901 6.45226669 C319.55367396 6.30038265 321.27760809 6.14573057 323.00124431 5.98785019 C338.76557893 4.54671683 354.61781704 3.79424696 370.35518336 5.9373436 C371.36226344 6.0711644 372.36934352 6.2049852 373.40694118 6.34286118 C416.89378612 12.51254871 456.49069869 36.10754187 483.35518336 70.7498436 C486.23643562 74.72843633 489.05645637 78.75208508 491.73408961 82.87093735 C495.22051685 87.96648485 499.29843836 91.05144808 504.35127711 94.55062485 C509.75341699 98.50563753 514.51271393 103.13992213 519.35518336 107.7498436 C520.04096461 108.37117172 520.72674586 108.99249985 521.43330836 109.6326561 C549.14937766 135.6019143 566.93093207 176.75207491 568.28162837 214.46991634 C568.34735336 217.39579498 568.37499754 220.31934703 568.38643336 223.24593735 C568.39243052 224.31148787 568.39842769 225.37703838 568.40460658 226.47487831 C568.37573898 263.12372295 561.65580962 299.56408798 556.22063422 335.70592058 C554.23264039 348.93197902 552.29790082 362.16586755 550.36661983 375.40030956 C550.15256613 376.86691708 550.15256613 376.86691708 549.93418813 378.36315304 C549.64969977 380.31238638 549.36530525 382.26163341 549.08100724 384.21089453 C548.25610119 389.85790286 547.41954467 395.50302204 546.57214046 401.14669716 C546.04879699 404.63844092 545.5314917 408.13106394 545.01521945 411.62385941 C544.77618953 413.2306549 544.53441165 414.83704458 544.28956866 416.44296455 C542.04964813 431.14540374 542.48518796 444.82043489 543.82393336 459.58773422 C543.98200355 461.37127508 544.13962456 463.15485579 544.29683375 464.93847275 C544.63466683 468.76195196 544.97538565 472.58515888 545.31831813 476.40818405 C545.86188274 482.47105849 546.39728781 488.53463692 546.93135524 494.59835434 C548.35521057 510.75069202 549.78892395 526.90215096 551.22906184 543.0530448 C552.17579337 553.67064599 553.11769958 564.28865089 554.05065608 574.90747213 C554.57898728 580.91658448 555.11474875 586.9249705 555.65633082 592.93290234 C555.99379399 596.69619353 556.32419131 600.46008208 556.65276027 604.22415924 C556.80464431 605.94833419 556.95929639 607.67226833 557.11717677 609.39590454 C558.55831013 625.16023916 559.31078 641.01247728 557.16768336 656.7498436 C557.03386256 657.75692368 556.90004176 658.76400375 556.76216578 659.80160141 C550.61432178 703.13448291 527.05602116 743.1013797 492.35518336 769.7498436 C489.04682297 772.13335817 485.68091073 774.42696359 482.30049586 776.70687485 C477.54960478 780.00225421 473.98011662 782.9393697 470.73018336 787.7498436 C466.11213821 794.27609986 460.85509108 799.97249247 455.35518336 805.7498436 C454.73385524 806.43562485 454.11252711 807.1214061 453.47237086 807.8279686 C427.60530497 835.43497166 386.52893926 853.29375377 348.94021297 854.6762886 C346.08839955 854.74206282 343.23897844 854.76966807 340.38643336 854.7810936 C339.34507731 854.78709076 338.30372127 854.79308792 337.23080897 854.79926682 C300.61251297 854.7698045 264.14401855 848.00837941 228.02575088 842.61529446 C214.71265571 840.62837341 201.39204294 838.69290835 188.0708282 836.76128006 C187.08684031 836.6185776 186.10285242 836.47587514 185.08904672 836.32884836 C183.12732351 836.04435963 181.16558664 835.75996511 179.20383573 835.47566748 C173.51923386 834.65058635 167.83647936 833.81402151 162.15513587 832.96680069 C158.63934868 832.44347056 155.12269193 831.92615319 151.60586238 831.40987968 C149.98778571 831.17083014 148.37010938 830.92905104 146.75289607 830.6842289 C132.01808007 828.45525316 118.31555305 828.87704139 103.51729274 830.2185936 C101.73375188 830.37666378 99.95017117 830.53428479 98.16655421 830.69149399 C94.343075 831.02932707 90.51986808 831.37004589 86.69684291 831.71297836 C80.63396847 832.25654297 74.57039004 832.79194805 68.50667262 833.32601547 C52.35433494 834.7498708 36.202876 836.18358418 20.05198216 837.62372208 C9.43438097 838.5704536 -1.18362393 839.51235981 -11.80244517 840.44531631 C-17.81155752 840.97364751 -23.81994354 841.50940898 -29.82787538 842.05099106 C-33.59116657 842.38845422 -37.35505512 842.71885155 -41.11913228 843.0474205 C-42.84330723 843.19930454 -44.56724137 843.35395663 -46.29087758 843.51183701 C-62.0552122 844.95297037 -77.90745032 845.70544023 -93.64481664 843.5623436 C-94.65189672 843.4285228 -95.65897679 843.294702 -96.69657445 843.15682602 C-128.71617403 838.61405166 -158.15185876 824.77477204 -182.64481664 803.7498436 C-183.47755101 803.04085922 -184.31028539 802.33187485 -185.16825414 801.6014061 C-196.14149483 792.01280145 -204.8226086 781.50745858 -213.01591039 769.53499985 C-216.45765199 764.54711069 -219.57404936 760.55062983 -224.64481664 757.1248436 C-231.1710729 752.50679844 -236.86746551 747.24975131 -242.64481664 741.7498436 C-243.67348851 740.81785141 -243.67348851 740.81785141 -244.72294164 739.8670311 C-273.01065822 713.36215379 -290.67790555 671.06715964 -291.94242406 632.6263237 C-292.47235168 609.06074272 -289.86974711 586.37683548 -286.39466023 563.10502696 C-285.64649547 558.05359699 -284.92919679 552.99777744 -284.20853734 547.94236374 C-282.84681048 538.41979507 -281.46108368 528.90090562 -280.06486917 519.38333851 C-277.5583413 502.29071461 -275.09619221 485.19165467 -272.63967347 468.09178168 C-271.77947544 462.11058286 -270.909342 456.13094091 -270.03045201 450.15246093 C-269.48619616 446.44220364 -268.94808209 442.73107193 -268.41125417 439.01973343 C-268.16247582 437.30976809 -267.91101554 435.6001903 -267.65657735 433.89105797 C-265.42425051 418.88315301 -265.74742113 404.98149461 -267.11356664 389.91195297 C-267.27163682 388.12841212 -267.42925783 386.3448314 -267.58646703 384.56121445 C-267.92430011 380.73773523 -268.26501892 376.91452832 -268.6079514 373.09150314 C-269.15151601 367.02862871 -269.68692109 360.96505027 -270.22098851 354.90133286 C-271.64484384 338.74899517 -273.07855722 322.59753624 -274.51869512 306.4466424 C-275.46542664 295.82904121 -276.40733285 285.2110363 -277.34028935 274.59221506 C-277.86862055 268.58310272 -278.40438202 262.5747167 -278.9459641 256.56678486 C-279.28342726 252.80349366 -279.61382459 249.03960511 -279.94239354 245.27552795 C-280.09427758 243.55135301 -280.24892967 241.82741887 -280.40681005 240.10378265 C-281.84794341 224.33944803 -282.60041327 208.48720992 -280.45731664 192.7498436 C-280.32349584 191.74276352 -280.18967504 190.73568344 -280.05179906 189.69808578 C-274.2058537 148.4931272 -252.25394855 108.88034003 -219.64481664 82.7498436 C-215.32570422 79.56000675 -210.9215379 76.49497243 -206.50028539 73.44906235 C-201.50121399 69.9704514 -197.46316405 66.84660453 -194.01981664 61.7498436 C-189.40177148 55.22358733 -184.14472435 49.52719473 -178.64481664 43.7498436 C-178.02348851 43.06406235 -177.40216039 42.3782811 -176.76200414 41.6717186 C-130.03353478 -8.19992135 -62.52451822 -9.33653836 0 0 Z " fill="#0D0D0F" transform="translate(293.6448166370392,7.250156402587891)"/>
<path d="M0 0 C2.35670931 0.46022436 4.71852913 0.86195442 7.08691406 1.25732422 C27.65072532 4.84616509 47.54694182 11.31620965 66.29785156 20.44873047 C67.66215551 21.092552 69.02673792 21.7357838 70.39160156 22.37841797 C101.34977839 37.17444075 130.45448142 60.12651525 151.29785156 87.44873047 C151.92506104 88.26132324 151.92506104 88.26132324 152.56494141 89.09033203 C165.70841398 106.18979325 177.9950894 125.22139811 185.19238281 145.64404297 C186.22666875 148.49928362 186.22666875 148.49928362 187.90332031 151.09716797 C189.88519118 154.43914629 189.84292878 156.63318994 189.29785156 160.44873047 C186.75567105 163.97498086 184.07902287 165.66459023 180.17089844 167.33813477 C179.37296875 167.68419769 178.57503906 168.03026062 177.75292969 168.3868103 C176.53766602 168.91246078 176.53766602 168.91246078 175.29785156 169.44873047 C173.82175816 170.11055089 172.34712187 170.77563161 170.87402344 171.4440918 C169.75610413 171.95030815 169.75610413 171.95030815 168.61560059 172.4667511 C167.84043091 172.8178746 167.06526123 173.16899811 166.26660156 173.53076172 C164.55052688 174.3063098 162.83437862 175.08169509 161.11816406 175.85693359 C158.47004524 177.05316454 155.82228599 178.25015307 153.17578125 179.44995117 C143.49278351 183.83852392 133.79918661 188.15915815 123.93640137 192.1308136 C119.56852794 193.89395864 115.30442752 195.80536708 111.04785156 197.82373047 C110.04093262 198.30108643 110.04093262 198.30108643 109.01367188 198.78808594 C108.47323242 199.04477051 107.93279297 199.30145508 107.37597656 199.56591797 C102.56901817 201.81542052 97.68294692 203.87593525 92.79785156 205.94873047 C85.56864745 209.0206758 78.42091571 212.20026798 71.32128906 215.56201172 C65.32955786 218.39083887 59.27883025 221.09322948 53.2355957 223.80981445 C48.91657577 225.76147085 44.65305717 227.76465254 40.44238281 229.94091797 C35.65513834 232.36487494 30.73170604 234.23866711 25.71191406 236.12255859 C19.80501022 238.41705957 14.0631941 241.07287688 8.29785156 243.69873047 C5.7443241 244.85495323 3.18933079 246.00790484 0.63378906 247.15966797 C0.0058847 247.44282867 -0.62201965 247.72598938 -1.26895142 248.01773071 C-6.84178437 250.52456313 -12.45110589 252.93928003 -18.07714844 255.32373047 C-23.83614816 257.7666117 -29.55082509 260.26577898 -35.20214844 262.94873047 C-41.1434906 265.76305044 -47.15095196 268.37967892 -53.20214844 270.94873047 C-60.43128664 274.02084089 -67.57907634 277.20026421 -74.67871094 280.56201172 C-80.67044214 283.39083887 -86.72116975 286.09322948 -92.7644043 288.80981445 C-97.08342423 290.76147085 -101.34694283 292.76465254 -105.55761719 294.94091797 C-110.34486166 297.36487494 -115.26829396 299.23866711 -120.28808594 301.12255859 C-126.19498978 303.41705957 -131.9368059 306.07287688 -137.70214844 308.69873047 C-140.2556759 309.85495323 -142.81066921 311.00790484 -145.36621094 312.15966797 C-145.9941153 312.44282867 -146.62201965 312.72598938 -147.26895142 313.01773071 C-152.84178437 315.52456313 -158.45110589 317.93928003 -164.07714844 320.32373047 C-169.83614816 322.7666117 -175.55082509 325.26577898 -181.20214844 327.94873047 C-188.03570987 331.18568062 -194.96922644 334.15194623 -201.92895508 337.10620117 C-207.21248844 339.3573873 -212.44816074 341.68048024 -217.63964844 344.13623047 C-219.99310269 345.24191479 -222.34725879 346.34610656 -224.70214844 347.44873047 C-225.32234863 347.73941406 -225.94254883 348.03009766 -226.58154297 348.32958984 C-228.44878241 349.19647118 -230.32384173 350.04364202 -232.20214844 350.88623047 C-233.28496094 351.37994141 -234.36777344 351.87365234 -235.48339844 352.38232422 C-239.25105254 353.63058826 -241.76517544 354.06726866 -245.70214844 353.44873047 C-251.52553075 348.53969019 -253.84319902 340.89214491 -256.70214844 334.01123047 C-257.23851952 332.73743071 -257.77497825 331.46366785 -258.31152344 330.18994141 C-264.02793175 316.53458838 -268.32020201 302.84166527 -271.70214844 288.44873047 C-272.00958984 287.22089844 -272.00958984 287.22089844 -272.32324219 285.96826172 C-283.28503919 240.67649581 -277.37879118 187.85233262 -258.70214844 145.44873047 C-258.04585936 143.91489302 -257.38961263 142.38103745 -256.73339844 140.84716797 C-241.46998007 105.59904874 -217.17385067 73.03083594 -186.70214844 49.44873047 C-185.88085449 48.81281982 -185.88085449 48.81281982 -185.04296875 48.1640625 C-175.05312703 40.48798255 -164.58483494 33.78383904 -153.70214844 27.44873047 C-153.08968262 27.08682617 -152.4772168 26.72492188 -151.84619141 26.35205078 C-134.51718857 16.19852795 -115.19656048 9.10116329 -95.70214844 4.44873047 C-94.99106934 4.27148438 -94.27999023 4.09423828 -93.54736328 3.91162109 C-88.29272358 2.6059156 -83.01846619 1.47343006 -77.70214844 0.44873047 C-76.93112793 0.29629883 -76.16010742 0.14386719 -75.36572266 -0.01318359 C-51.25400808 -4.58192673 -24.09679566 -4.74479084 0 0 Z " fill="#EFEFEF" transform="translate(468.7021484375,194.55126953125)"/>
<path d="M0 0 C5.05142998 0.74816477 10.10724952 1.46546345 15.16266322 2.18612289 C24.68523189 3.54784975 34.20412135 4.93357656 43.72168845 6.32979107 C60.81431235 8.83631894 77.91337229 11.29846802 95.01324528 13.75498676 C100.9944441 14.6151848 106.97408605 15.48531823 112.95256603 16.36420822 C116.66282332 16.90846408 120.37395503 17.44657815 124.08529353 17.98340607 C125.79525887 18.23218442 127.50483666 18.48364469 129.21396899 18.73808289 C144.22187395 20.97040972 158.12353235 20.6472391 173.19307399 19.2810936 C174.97661485 19.12302341 176.76019556 18.9654024 178.54381251 18.80819321 C182.36729173 18.47036013 186.19049864 18.12964131 190.01352382 17.78670883 C196.07639826 17.24314422 202.13997669 16.70773915 208.20369411 16.17367172 C224.35603179 14.74981639 240.50749072 13.31610301 256.65838456 11.87596512 C267.27598575 10.92923359 277.89399066 9.98732738 288.5128119 9.05437088 C294.52192424 8.52603968 300.53031026 7.99027821 306.5382421 7.44869614 C310.3015333 7.11123297 314.06542185 6.78083565 317.82949901 6.45226669 C319.55367396 6.30038265 321.27760809 6.14573057 323.00124431 5.98785019 C338.76557893 4.54671683 354.61781704 3.79424696 370.35518336 5.9373436 C371.36226344 6.0711644 372.36934352 6.2049852 373.40694118 6.34286118 C416.89378612 12.51254871 456.49069869 36.10754187 483.35518336 70.7498436 C486.23643562 74.72843633 489.05645637 78.75208508 491.73408961 82.87093735 C495.22051685 87.96648485 499.29843836 91.05144808 504.35127711 94.55062485 C509.75341699 98.50563753 514.51271393 103.13992213 519.35518336 107.7498436 C520.04096461 108.37117172 520.72674586 108.99249985 521.43330836 109.6326561 C549.14937766 135.6019143 566.93093207 176.75207491 568.28162837 214.46991634 C568.34735336 217.39579498 568.37499754 220.31934703 568.38643336 223.24593735 C568.39243052 224.31148787 568.39842769 225.37703838 568.40460658 226.47487831 C568.37573898 263.12372295 561.65580962 299.56408798 556.22063422 335.70592058 C554.23264039 348.93197902 552.29790082 362.16586755 550.36661983 375.40030956 C550.15256613 376.86691708 550.15256613 376.86691708 549.93418813 378.36315304 C549.64969977 380.31238638 549.36530525 382.26163341 549.08100724 384.21089453 C548.25610119 389.85790286 547.41954467 395.50302204 546.57214046 401.14669716 C546.04879699 404.63844092 545.5314917 408.13106394 545.01521945 411.62385941 C544.77618953 413.2306549 544.53441165 414.83704458 544.28956866 416.44296455 C542.04964813 431.14540374 542.48518796 444.82043489 543.82393336 459.58773422 C543.98200355 461.37127508 544.13962456 463.15485579 544.29683375 464.93847275 C544.63466683 468.76195196 544.97538565 472.58515888 545.31831813 476.40818405 C545.86188274 482.47105849 546.39728781 488.53463692 546.93135524 494.59835434 C548.35521057 510.75069202 549.78892395 526.90215096 551.22906184 543.0530448 C552.17579337 553.67064599 553.11769958 564.28865089 554.05065608 574.90747213 C554.57898728 580.91658448 555.11474875 586.9249705 555.65633082 592.93290234 C555.99379399 596.69619353 556.32419131 600.46008208 556.65276027 604.22415924 C556.80464431 605.94833419 556.95929639 607.67226833 557.11717677 609.39590454 C558.55831013 625.16023916 559.31078 641.01247728 557.16768336 656.7498436 C557.03386256 657.75692368 556.90004176 658.76400375 556.76216578 659.80160141 C550.61432178 703.13448291 527.05602116 743.1013797 492.35518336 769.7498436 C489.04682297 772.13335817 485.68091073 774.42696359 482.30049586 776.70687485 C477.54960478 780.00225421 473.98011662 782.9393697 470.73018336 787.7498436 C466.11213821 794.27609986 460.85509108 799.97249247 455.35518336 805.7498436 C454.73385524 806.43562485 454.11252711 807.1214061 453.47237086 807.8279686 C427.60530497 835.43497166 386.52893926 853.29375377 348.94021297 854.6762886 C346.08839955 854.74206282 343.23897844 854.76966807 340.38643336 854.7810936 C339.34507731 854.78709076 338.30372127 854.79308792 337.23080897 854.79926682 C300.61251297 854.7698045 264.14401855 848.00837941 228.02575088 842.61529446 C214.71265571 840.62837341 201.39204294 838.69290835 188.0708282 836.76128006 C187.08684031 836.6185776 186.10285242 836.47587514 185.08904672 836.32884836 C183.12732351 836.04435963 181.16558664 835.75996511 179.20383573 835.47566748 C173.51923386 834.65058635 167.83647936 833.81402151 162.15513587 832.96680069 C158.63934868 832.44347056 155.12269193 831.92615319 151.60586238 831.40987968 C149.98778571 831.17083014 148.37010938 830.92905104 146.75289607 830.6842289 C132.01808007 828.45525316 118.31555305 828.87704139 103.51729274 830.2185936 C101.73375188 830.37666378 99.95017117 830.53428479 98.16655421 830.69149399 C94.343075 831.02932707 90.51986808 831.37004589 86.69684291 831.71297836 C80.63396847 832.25654297 74.57039004 832.79194805 68.50667262 833.32601547 C52.35433494 834.7498708 36.202876 836.18358418 20.05198216 837.62372208 C9.43438097 838.5704536 -1.18362393 839.51235981 -11.80244517 840.44531631 C-17.81155752 840.97364751 -23.81994354 841.50940898 -29.82787538 842.05099106 C-33.59116657 842.38845422 -37.35505512 842.71885155 -41.11913228 843.0474205 C-42.84330723 843.19930454 -44.56724137 843.35395663 -46.29087758 843.51183701 C-62.0552122 844.95297037 -77.90745032 845.70544023 -93.64481664 843.5623436 C-94.65189672 843.4285228 -95.65897679 843.294702 -96.69657445 843.15682602 C-128.71617403 838.61405166 -158.15185876 824.77477204 -182.64481664 803.7498436 C-183.47755101 803.04085922 -184.31028539 802.33187485 -185.16825414 801.6014061 C-196.14149483 792.01280145 -204.8226086 781.50745858 -213.01591039 769.53499985 C-216.45765199 764.54711069 -219.57404936 760.55062983 -224.64481664 757.1248436 C-231.1710729 752.50679844 -236.86746551 747.24975131 -242.64481664 741.7498436 C-243.67348851 740.81785141 -243.67348851 740.81785141 -244.72294164 739.8670311 C-273.01065822 713.36215379 -290.67790555 671.06715964 -291.94242406 632.6263237 C-292.47235168 609.06074272 -289.86974711 586.37683548 -286.39466023 563.10502696 C-285.64649547 558.05359699 -284.92919679 552.99777744 -284.20853734 547.94236374 C-282.84681048 538.41979507 -281.46108368 528.90090562 -280.06486917 519.38333851 C-277.5583413 502.29071461 -275.09619221 485.19165467 -272.63967347 468.09178168 C-271.77947544 462.11058286 -270.909342 456.13094091 -270.03045201 450.15246093 C-269.48619616 446.44220364 -268.94808209 442.73107193 -268.41125417 439.01973343 C-268.16247582 437.30976809 -267.91101554 435.6001903 -267.65657735 433.89105797 C-265.42425051 418.88315301 -265.74742113 404.98149461 -267.11356664 389.91195297 C-267.27163682 388.12841212 -267.42925783 386.3448314 -267.58646703 384.56121445 C-267.92430011 380.73773523 -268.26501892 376.91452832 -268.6079514 373.09150314 C-269.15151601 367.02862871 -269.68692109 360.96505027 -270.22098851 354.90133286 C-271.64484384 338.74899517 -273.07855722 322.59753624 -274.51869512 306.4466424 C-275.46542664 295.82904121 -276.40733285 285.2110363 -277.34028935 274.59221506 C-277.86862055 268.58310272 -278.40438202 262.5747167 -278.9459641 256.56678486 C-279.28342726 252.80349366 -279.61382459 249.03960511 -279.94239354 245.27552795 C-280.09427758 243.55135301 -280.24892967 241.82741887 -280.40681005 240.10378265 C-281.84794341 224.33944803 -282.60041327 208.48720992 -280.45731664 192.7498436 C-280.32349584 191.74276352 -280.18967504 190.73568344 -280.05179906 189.69808578 C-274.2058537 148.4931272 -252.25394855 108.88034003 -219.64481664 82.7498436 C-215.32570422 79.56000675 -210.9215379 76.49497243 -206.50028539 73.44906235 C-201.50121399 69.9704514 -197.46316405 66.84660453 -194.01981664 61.7498436 C-189.40177148 55.22358733 -184.14472435 49.52719473 -178.64481664 43.7498436 C-178.02348851 43.06406235 -177.40216039 42.3782811 -176.76200414 41.6717186 C-130.03353478 -8.19992135 -62.52451822 -9.33653836 0 0 Z M-101.64481664 27.7498436 C-103.43884514 28.10523681 -103.43884514 28.10523681 -105.26911664 28.46780968 C-107.96698331 29.04124528 -110.61150292 29.70365311 -113.26981664 30.4373436 C-114.21453832 30.6929808 -115.15926 30.94861801 -116.13260961 31.2120018 C-150.17824408 40.76722212 -179.28091454 59.50545166 -204.64481664 83.7498436 C-205.32157445 84.38535141 -205.99833226 85.02085922 -206.69559789 85.67562485 C-239.48108608 117.25521003 -260.63602402 167.22325778 -261.73819315 212.59365439 C-261.78905862 217.21620789 -261.78312422 221.83871624 -261.77852941 226.461483 C-261.78039992 228.25187545 -261.78270158 230.04226749 -261.78539473 231.83265889 C-261.79148926 236.73099578 -261.79138191 241.62931555 -261.79020035 246.52765536 C-261.78999576 251.81883298 -261.79552066 257.11000519 -261.80025792 262.40118027 C-261.8085517 272.75867975 -261.81131217 283.11617354 -261.8118703 293.47367607 C-261.81234598 301.89387935 -261.81440332 310.31408076 -261.81757092 318.73428345 C-261.82637333 342.61992847 -261.83099084 366.50556901 -261.83024045 390.39121567 C-261.83020049 391.67793691 -261.83016054 392.96465815 -261.83011937 394.29037094 C-261.83007849 395.5786672 -261.83003761 396.86696346 -261.82999549 398.194299 C-261.82958894 419.07817205 -261.83916186 439.96202708 -261.85325774 460.84589492 C-261.86762525 482.30185267 -261.87452774 503.75780163 -261.87366396 525.21376431 C-261.87333217 537.25469736 -261.87607179 549.29561151 -261.88684201 561.33654022 C-261.89595184 571.58658863 -261.89811821 581.83660955 -261.89133259 592.08666025 C-261.8880701 597.31355421 -261.88800102 602.54039546 -261.89668584 607.76728439 C-261.90456342 612.55768609 -261.90310655 617.34799339 -261.89440171 622.13839282 C-261.89286952 623.86574057 -261.89467221 625.59309541 -261.90026178 627.32043479 C-261.92948886 636.99802618 -261.49042094 646.20815865 -259.64481664 655.7498436 C-259.44054199 656.8241755 -259.23626734 657.8985074 -259.02580255 659.00539482 C-258.44741489 661.98904174 -257.83234442 664.96314017 -257.20731664 667.9373436 C-257.00300023 668.93958969 -256.79868382 669.94183578 -256.58817601 670.97445297 C-249.0054874 707.32883856 -229.74115899 738.86090537 -204.64481664 765.7498436 C-203.88684789 766.56195297 -203.12887914 767.37406235 -202.34794164 768.2107811 C-195.66265809 775.1363853 -188.3851527 781.06073807 -180.64481664 786.7498436 C-179.79306859 787.37608627 -179.79306859 787.37608627 -178.92411351 788.01498032 C-159.09838725 802.36074837 -136.59359052 812.84119064 -112.95731664 818.9998436 C-112.07503392 819.23429184 -111.19275121 819.46874008 -110.28373265 819.71029282 C-86.80328282 825.46423188 -63.09294645 825.18405018 -39.09874773 825.12735856 C-33.90578354 825.1184186 -28.71284177 825.12698795 -23.51987767 825.13322067 C-13.37788487 825.14265389 -3.23596379 825.13615736 6.90602364 825.12395773 C18.74098395 825.11025803 30.57592767 825.11198256 42.4108939 825.11409106 C63.53996204 825.11727289 84.66899635 825.10565923 105.79805446 825.08602524 C126.25639827 825.06701976 146.71470245 825.05993999 167.17305446 825.06551743 C189.50492186 825.07158771 211.8367719 825.07137567 234.16863787 825.06003159 C236.55390803 825.05882443 238.93917819 825.05761844 241.32444835 825.05641365 C242.49774787 825.05581011 243.67104739 825.05520657 244.87990145 825.05458475 C253.11126905 825.05072062 261.34263014 825.05109334 269.57399821 825.0529995 C279.61638975 825.05513088 289.65874677 825.04982628 299.70112862 825.03538594 C304.81567832 825.02818797 309.93017798 825.02402522 315.04473186 825.0286293 C340.29166472 825.04846664 364.7437247 825.04579814 389.35518336 818.7498436 C390.49600368 818.47527328 391.63682399 818.20070297 392.81221461 817.91781235 C442.95833733 804.8905278 486.11722515 769.78620635 512.18184352 725.48226547 C529.64739191 694.8149829 538.52422294 660.69424107 538.48889613 625.49113083 C538.49076583 623.72537792 538.49306716 621.95962543 538.49576145 620.19387358 C538.50186676 615.35399976 538.50174734 610.51414325 538.50056708 605.67426646 C538.50036274 600.44900346 538.50588518 595.22374598 538.51062465 589.99848557 C538.518926 579.76335656 538.5216793 569.52823332 538.52223703 559.29310123 C538.52271265 550.96684431 538.52476976 542.64058928 538.52793765 534.31433296 C538.53674466 510.6838127 538.54135723 487.05329698 538.54060718 463.42277507 C538.54056722 462.14923551 538.54052726 460.87569596 538.5404861 459.5635643 C538.54044522 458.28846029 538.54040434 457.01335628 538.54036222 455.69961276 C538.53995626 435.06095401 538.54951294 414.42231355 538.56362446 393.78366009 C538.57801511 372.56841482 538.5848931 351.35317846 538.58403069 330.13792819 C538.58369953 318.23696571 538.58641055 306.33602238 538.59720874 294.43506432 C538.6063494 284.29611602 538.60846004 274.15719555 538.60169932 264.0182449 C538.59845135 258.85303276 538.59831435 253.68787388 538.60705256 248.52266693 C539.13193651 212.94269429 539.13193651 212.94269429 533.60518336 177.9373436 C533.34060328 176.89094711 533.07602321 175.84455063 532.80342555 174.76644516 C523.77102857 139.91189311 506.11423391 109.70340974 481.35518336 83.7498436 C480.55596461 82.89777328 479.75674586 82.04570297 478.93330836 81.16781235 C455.11188883 56.45114339 422.23936877 38.66385144 389.10518336 30.4373436 C388.19156032 30.20684311 387.27793727 29.97634262 386.33662868 29.73885727 C362.22129105 24.15690688 337.96194768 24.30989779 313.36953592 24.35766959 C308.13021266 24.36453316 302.89091795 24.35394319 297.6516006 24.34572983 C287.42051253 24.33246787 277.1894909 24.3352362 266.95840035 24.34396775 C258.63631143 24.35077306 250.31424098 24.35164878 241.99215007 24.3483963 C240.80279767 24.3479366 239.61344528 24.3474769 238.3880519 24.34700327 C235.97111081 24.346044 233.55416971 24.34507135 231.13722862 24.3440855 C208.53362093 24.33555388 185.93004989 24.34533102 163.32644822 24.3614866 C143.97321531 24.3748912 124.6200364 24.37255615 105.26680446 24.35873032 C82.73495356 24.34264099 60.20313467 24.33637402 37.67127883 24.34556711 C35.26438094 24.34652265 32.85748303 24.34746577 30.45058513 24.3483963 C28.67470473 24.34909054 28.67470473 24.34909054 26.86294796 24.34979881 C18.55939642 24.35237839 10.25586536 24.34804014 1.952317 24.34095764 C-8.17896547 24.33250522 -18.31017829 24.33490107 -28.44145288 24.35079987 C-33.60071294 24.35863199 -38.7598573 24.36186153 -43.91911626 24.35185242 C-72.92269908 24.12947312 -72.92269908 24.12947312 -101.64481664 27.7498436 Z " fill="#7A82FC" transform="translate(293.6448166370392,7.250156402587891)"/>
<path d="M0 0 C1.97729492 1.31079102 1.97729492 1.31079102 3 3 C3.37231445 4.89428711 3.37231445 4.89428711 3.36328125 7.02734375 C3.36263672 7.82076172 3.36199219 8.61417969 3.36132812 9.43164062 C3.34521484 10.25857422 3.32910156 11.08550781 3.3125 11.9375 C3.31733398 13.12569336 3.31733398 13.12569336 3.32226562 14.33789062 C3.26329945 21.03323192 2.21692178 27.42883301 1 34 C0.75068726 35.4394397 0.75068726 35.4394397 0.49633789 36.90795898 C-2.69664881 55.20462319 -7.33313348 73.01086245 -15.07739258 89.94873047 C-15.90433047 91.78729416 -16.65475847 93.65982189 -17.39453125 95.53515625 C-24.42030455 113.01249314 -35.18586539 129.37515251 -47 144 C-47.67675781 144.86625 -48.35351562 145.7325 -49.05078125 146.625 C-71.8732269 175.33037954 -100.32960948 196.6911579 -133 213 C-134.11761719 213.56460938 -135.23523438 214.12921875 -136.38671875 214.7109375 C-152.48489142 222.50237062 -169.55387423 227.34066163 -187 231 C-187.89477051 231.19223145 -188.78954102 231.38446289 -189.71142578 231.58251953 C-203.48912643 234.49774398 -216.92876848 235.81368935 -231 236 C-232.03560059 236.01514648 -233.07120117 236.03029297 -234.13818359 236.04589844 C-237.30052405 236.08525371 -240.46245423 236.11003409 -243.625 236.125 C-244.60331787 236.12983398 -245.58163574 236.13466797 -246.58959961 236.13964844 C-247.50104736 236.13739258 -248.41249512 236.13513672 -249.3515625 236.1328125 C-250.15416504 236.13168457 -250.95676758 236.13055664 -251.78369141 236.12939453 C-253.98150136 236.00108 -255.88043301 235.57134942 -258 235 C-259.72809657 234.89683006 -261.4576161 234.81680931 -263.1875 234.75 C-307.63320405 231.38064897 -355.79630367 211.04143953 -389 181 C-390.56935594 177.86128812 -390.35201103 175.46144178 -390 172 C-385.76036834 166.36258585 -379.55384642 164.16701342 -373.25 161.375 C-372.11071045 160.8601001 -370.9714209 160.3452002 -369.79760742 159.81469727 C-366.20437248 158.19604953 -362.60349093 156.59567219 -359 155 C-357.82840332 154.47937988 -356.65680664 153.95875977 -355.44970703 153.42236328 C-349.13535838 150.61943447 -342.81866729 147.82173716 -336.47509766 145.08544922 C-334.96866285 144.42480519 -333.47060014 143.74397981 -331.98974609 143.02783203 C-327.80723602 141.03931142 -324.60743451 140.46306257 -320 141 C-317.4171686 142.09393849 -315.11853777 143.20685345 -312.6875 144.5625 C-288.96483777 157.0079486 -263.27274991 163.42192899 -236.4375 163.25 C-235.22642578 163.25773438 -234.01535156 163.26546875 -232.76757812 163.2734375 C-224.66407533 163.25607595 -216.96907764 162.43040058 -209 161 C-207.77667969 160.81179688 -206.55335938 160.62359375 -205.29296875 160.4296875 C-172.68582192 154.60551788 -144.25600358 139.16332876 -120 117 C-119.18015625 116.25234375 -118.3603125 115.5046875 -117.515625 114.734375 C-94.59829572 92.79225122 -79.41606018 62.35504676 -72.01953125 31.78515625 C-70.5959848 27.89631098 -68.40371713 25.77879157 -64.79052734 23.77416992 C-63.9805127 23.42974854 -63.17049805 23.08532715 -62.3359375 22.73046875 C-61.39484131 22.32344727 -60.45374512 21.91642578 -59.48413086 21.49707031 C-58.45811768 21.06491211 -57.43210449 20.63275391 -56.375 20.1875 C-54.13347198 19.22936654 -51.89262517 18.26963835 -49.65234375 17.30859375 C-49.05408279 17.05312775 -48.45582184 16.79766174 -47.83943176 16.53445435 C-43.65111597 14.73751912 -39.49920744 12.8706168 -35.35913086 10.96528625 C-32.30986003 9.56198769 -29.25417056 8.17295161 -26.19830322 6.78408813 C-24.69922436 6.09841162 -23.20303011 5.40639077 -21.7098999 4.70785522 C-19.59420733 3.71969009 -17.46873731 2.75619975 -15.33984375 1.796875 C-14.71670792 1.49850235 -14.09357208 1.2001297 -13.45155334 0.89271545 C-8.45804062 -1.31402434 -5.19114931 -1.20049364 0 0 Z " fill="#ECECEC" transform="translate(668,436)"/>
<path d="M0 0 C11.11975724 9.67803917 11.11975724 9.67803917 15.06689453 15.37841797 C15.06689453 19.2282206 14.8453003 21.44877213 12.34667969 24.43286133 C9.8435052 26.56905725 7.62555372 27.68271532 4.59033203 28.94482422 C3.46715576 29.42008545 2.34397949 29.89534668 1.18676758 30.38500977 C0.27766129 30.76246841 0.27766129 30.76246841 -0.64981079 31.14755249 C-4.03122557 32.55336145 -7.39757341 33.99450196 -10.76513672 35.43310547 C-11.49470078 35.74408676 -12.22426483 36.05506805 -12.97593689 36.37547302 C-22.13114193 40.29360688 -31.18314199 44.43908609 -40.24560547 48.56591797 C-54.49278842 55.04476435 -68.77966834 61.422331 -83.12060547 67.69091797 C-95.21425872 72.97781935 -107.2872671 78.30277451 -119.30810547 83.75341797 C-119.94185089 84.04074799 -120.57559631 84.328078 -121.22854614 84.62411499 C-122.48761745 85.19501707 -123.74668629 85.76592459 -125.00575256 86.33683777 C-135.58455383 91.13335361 -146.19962109 95.8464352 -156.81835938 100.55371094 C-165.46285572 104.38642382 -174.10414221 108.2263728 -182.74560547 112.06591797 C-184.18720535 112.70639069 -184.18720535 112.70639069 -185.65792847 113.35980225 C-201.55172545 120.42190051 -217.43478623 127.50775469 -233.30455017 134.623703 C-234.71713751 135.25588028 -236.13058479 135.88613998 -237.54493713 136.51435852 C-241.2933358 138.18132889 -245.01968063 139.88475684 -248.72851562 141.63818359 C-249.92828789 142.19563263 -249.92828789 142.19563263 -251.15229797 142.76434326 C-252.67773295 143.47349602 -254.19791286 144.19411712 -255.71134949 144.92852783 C-260.70638818 147.22859392 -264.42842908 147.87203186 -269.93310547 147.37841797 C-272.89794922 145.64404297 -272.89794922 145.64404297 -274.93310547 142.37841797 C-275.65186967 138.28154076 -275.59254312 134.27752412 -275.49560547 130.12841797 C-275.47973389 128.93563232 -275.4638623 127.74284668 -275.44750977 126.51391602 C-275.00046877 108.62873746 -272.06092096 91.19208454 -265.93310547 74.37841797 C-265.57732422 73.32525391 -265.22154297 72.27208984 -264.85498047 71.18701172 C-257.08653276 49.33141411 -244.08549216 29.88042342 -227.93310547 13.37841797 C-227.05009766 12.44513672 -226.16708984 11.51185547 -225.25732422 10.55029297 C-211.96284999 -3.22516803 -195.61244935 -15.20520219 -177.93310547 -22.62158203 C-177.20760498 -22.92733154 -176.48210449 -23.23308105 -175.73461914 -23.5480957 C-164.95290428 -28.05824895 -154.38048093 -32.12988201 -142.93310547 -34.62158203 C-141.65564453 -34.91935547 -140.37818359 -35.21712891 -139.06201172 -35.52392578 C-91.01797809 -45.71179646 -37.402003 -31.37460267 0 0 Z " fill="#0F0F10" transform="translate(538.93310546875,301.62158203125)"/>
<path d="M0 0 C5.05142998 0.74816477 10.10724952 1.46546345 15.16266322 2.18612289 C24.68523189 3.54784975 34.20412135 4.93357656 43.72168845 6.32979107 C60.81431235 8.83631894 77.91337229 11.29846802 95.01324528 13.75498676 C100.9944441 14.6151848 106.97408605 15.48531823 112.95256603 16.36420822 C116.66282332 16.90846408 120.37395503 17.44657815 124.08529353 17.98340607 C125.79525887 18.23218442 127.50483666 18.48364469 129.21396899 18.73808289 C144.22187395 20.97040972 158.12353235 20.6472391 173.19307399 19.2810936 C174.97661485 19.12302341 176.76019556 18.9654024 178.54381251 18.80819321 C182.36729173 18.47036013 186.19049864 18.12964131 190.01352382 17.78670883 C196.07639826 17.24314422 202.13997669 16.70773915 208.20369411 16.17367172 C224.35603179 14.74981639 240.50749072 13.31610301 256.65838456 11.87596512 C267.27598575 10.92923359 277.89399066 9.98732738 288.5128119 9.05437088 C294.52192424 8.52603968 300.53031026 7.99027821 306.5382421 7.44869614 C310.3015333 7.11123297 314.06542185 6.78083565 317.82949901 6.45226669 C319.55367396 6.30038265 321.27760809 6.14573057 323.00124431 5.98785019 C338.76557893 4.54671683 354.61781704 3.79424696 370.35518336 5.9373436 C371.36226344 6.0711644 372.36934352 6.2049852 373.40694118 6.34286118 C416.89378612 12.51254871 456.49069869 36.10754187 483.35518336 70.7498436 C486.23643562 74.72843633 489.05645637 78.75208508 491.73408961 82.87093735 C495.22051685 87.96648485 499.29843836 91.05144808 504.35127711 94.55062485 C509.75341699 98.50563753 514.51271393 103.13992213 519.35518336 107.7498436 C520.04096461 108.37117172 520.72674586 108.99249985 521.43330836 109.6326561 C549.14937766 135.6019143 566.93093207 176.75207491 568.28162837 214.46991634 C568.34735336 217.39579498 568.37499754 220.31934703 568.38643336 223.24593735 C568.39243052 224.31148787 568.39842769 225.37703838 568.40460658 226.47487831 C568.37573898 263.12372295 561.65580962 299.56408798 556.22063422 335.70592058 C554.23264039 348.93197902 552.29790082 362.16586755 550.36661983 375.40030956 C550.15256613 376.86691708 550.15256613 376.86691708 549.93418813 378.36315304 C549.64969977 380.31238638 549.36530525 382.26163341 549.08100724 384.21089453 C548.25610119 389.85790286 547.41954467 395.50302204 546.57214046 401.14669716 C546.04879699 404.63844092 545.5314917 408.13106394 545.01521945 411.62385941 C544.77618953 413.2306549 544.53441165 414.83704458 544.28956866 416.44296455 C542.04964813 431.14540374 542.48518796 444.82043489 543.82393336 459.58773422 C543.98200355 461.37127508 544.13962456 463.15485579 544.29683375 464.93847275 C544.63466683 468.76195196 544.97538565 472.58515888 545.31831813 476.40818405 C545.86188274 482.47105849 546.39728781 488.53463692 546.93135524 494.59835434 C548.35521057 510.75069202 549.78892395 526.90215096 551.22906184 543.0530448 C552.17579337 553.67064599 553.11769958 564.28865089 554.05065608 574.90747213 C554.57898728 580.91658448 555.11474875 586.9249705 555.65633082 592.93290234 C555.99379399 596.69619353 556.32419131 600.46008208 556.65276027 604.22415924 C556.80464431 605.94833419 556.95929639 607.67226833 557.11717677 609.39590454 C558.55831013 625.16023916 559.31078 641.01247728 557.16768336 656.7498436 C557.03386256 657.75692368 556.90004176 658.76400375 556.76216578 659.80160141 C550.36560313 704.8875684 525.49803602 744.60546605 489.42549586 771.97249985 C480.28586656 778.56559121 470.46898622 783.81075943 460.35518336 788.7498436 C459.68841578 789.07629868 459.02164821 789.40275375 458.33467555 789.73910141 C453.72551232 791.87328658 453.72551232 791.87328658 450.35518336 790.7498436 C451.13119899 790.16718735 451.90721461 789.5845311 452.70674586 788.9842186 C499.60514794 753.50206812 528.41122857 706.77118607 536.8746736 648.15175533 C537.69036642 640.62994176 537.49647867 633.04712207 537.48889613 625.49113083 C537.49076583 623.72537792 537.49306716 621.95962543 537.49576145 620.19387358 C537.50186676 615.35399976 537.50174734 610.51414325 537.50056708 605.67426646 C537.50036274 600.44900346 537.50588518 595.22374598 537.51062465 589.99848557 C537.518926 579.76335656 537.5216793 569.52823332 537.52223703 559.29310123 C537.52271265 550.96684431 537.52476976 542.64058928 537.52793765 534.31433296 C537.53674466 510.6838127 537.54135723 487.05329698 537.54060718 463.42277507 C537.54056722 462.14923551 537.54052726 460.87569596 537.5404861 459.5635643 C537.54044522 458.28846029 537.54040434 457.01335628 537.54036222 455.69961276 C537.53995626 435.06095401 537.54951294 414.42231355 537.56362446 393.78366009 C537.57801511 372.56841482 537.5848931 351.35317846 537.58403069 330.13792819 C537.58369953 318.23696571 537.58641055 306.33602238 537.59720874 294.43506432 C537.6063494 284.29611602 537.60846004 274.15719555 537.60169932 264.0182449 C537.59845135 258.85303276 537.59831435 253.68787388 537.60705256 248.52266693 C538.13193651 212.94269429 538.13193651 212.94269429 532.60518336 177.9373436 C532.34060328 176.89094711 532.07602321 175.84455063 531.80342555 174.76644516 C522.76789129 139.89978687 505.1043738 109.72350672 480.35518336 83.7498436 C479.62944118 82.97124985 478.90369899 82.1926561 478.15596461 81.3904686 C454.73286632 56.97156391 421.69276794 39.52814218 389.10518336 31.4373436 C388.19156032 31.20684311 387.27793727 30.97634262 386.33662868 30.73885727 C362.22129105 25.15690688 337.96194768 25.30989779 313.36953592 25.35766959 C308.13021266 25.36453316 302.89091795 25.35394319 297.6516006 25.34572983 C287.42051253 25.33246787 277.1894909 25.3352362 266.95840035 25.34396775 C258.63631143 25.35077306 250.31424098 25.35164878 241.99215007 25.3483963 C240.80279767 25.3479366 239.61344528 25.3474769 238.3880519 25.34700327 C235.97111081 25.346044 233.55416971 25.34507135 231.13722862 25.3440855 C208.53362093 25.33555388 185.93004989 25.34533102 163.32644822 25.3614866 C143.97321531 25.3748912 124.6200364 25.37255615 105.26680446 25.35873032 C82.73495356 25.34264099 60.20313467 25.33637402 37.67127883 25.34556711 C35.26438094 25.34652265 32.85748303 25.34746577 30.45058513 25.3483963 C28.67470473 25.34909054 28.67470473 25.34909054 26.86294796 25.34979881 C18.55939642 25.35237839 10.25586536 25.34804014 1.952317 25.34095764 C-8.17896547 25.33250522 -18.31017829 25.33490107 -28.44145288 25.35079987 C-33.60071294 25.35863199 -38.7598573 25.36186153 -43.91911626 25.35185242 C-72.92269908 25.12947312 -72.92269908 25.12947312 -101.64481664 28.7498436 C-102.84083564 28.9867724 -104.03685464 29.22370121 -105.26911664 29.46780968 C-107.96698331 30.04124528 -110.61150292 30.70365311 -113.26981664 31.4373436 C-114.21453832 31.6929808 -115.15926 31.94861801 -116.13260961 32.2120018 C-133.57789981 37.10818288 -153.18689162 44.28907223 -167.7251389 55.32967758 C-170.33169008 57.25798843 -173.00210615 58.00690401 -176.08231664 58.9998436 C-182.55175172 61.20825809 -188.20105672 64.05457867 -194.09794164 67.4920311 C-194.93841039 67.90710922 -195.77887914 68.32218735 -196.64481664 68.7498436 C-197.30481664 68.4198436 -197.96481664 68.0898436 -198.64481664 67.7498436 C-192.49612749 59.18722463 -185.90532967 51.38157083 -178.64481664 43.7498436 C-178.02477757 43.06535141 -177.40473851 42.38085922 -176.76591039 41.67562485 C-130.03081596 -8.19605309 -62.53172483 -9.33761449 0 0 Z " fill="#F997C1" transform="translate(293.6448166370392,7.250156402587891)"/>
<path d="M0 0 C5.07044834 0.74379917 10.14501497 1.45845474 15.21913266 2.17671132 C24.77017895 3.53303952 34.31736031 4.91476072 43.86335021 6.30618078 C54.73698043 7.8896902 65.61496799 9.44223509 76.4932729 10.99324715 C92.52010249 13.27937339 108.54539334 15.57627617 124.56635022 17.90322995 C126.28804015 18.1531985 128.00979284 18.40273524 129.73161244 18.65180898 C132.07969351 18.99166408 134.42751101 19.33328179 136.77525449 19.6754601 C137.45595941 19.77371191 138.13666432 19.87196373 138.83799666 19.97319287 C142.30142212 20.48028136 145.73268019 21.05903069 149.15759397 21.78277516 C149.15759397 22.11277516 149.15759397 22.44277516 149.15759397 22.78277516 C126.22332682 25.26055607 103.2907296 25.0818406 80.25424027 25.08869743 C74.70326257 25.09323445 69.15233099 25.11127343 63.60138059 25.12849355 C47.15288172 25.17723506 30.70435638 25.20852664 14.25579953 25.22979665 C1.43175122 25.24639591 -11.39220867 25.26938262 -24.21619797 25.31281739 C-30.78169952 25.33436328 -37.34703203 25.34267377 -43.91256642 25.34042466 C-48.01848382 25.34211096 -52.12429375 25.35627574 -56.23017192 25.37363744 C-58.10763704 25.37915653 -59.9851252 25.37979832 -61.86259151 25.37469983 C-79.22575981 25.33255176 -96.6709761 26.83448643 -113.46740603 31.47027516 C-114.41212771 31.72591237 -115.35684939 31.98154958 -116.330199 32.24493337 C-133.77548921 37.14111445 -153.38448101 44.3220038 -167.9227283 55.36260915 C-170.52927948 57.29092 -173.19969554 58.03983557 -176.27990603 59.03277516 C-182.74934112 61.24118965 -188.39864612 64.08751024 -194.29553103 67.52496266 C-195.13599978 67.94004079 -195.97646853 68.35511891 -196.84240603 68.78277516 C-197.50240603 68.45277516 -198.16240603 68.12277516 -198.84240603 67.78277516 C-192.69371688 59.2201562 -186.10291907 51.4145024 -178.84240603 43.78277516 C-178.22236697 43.09828298 -177.60232791 42.41379079 -176.96349978 41.70855641 C-130.16477842 -8.23101874 -62.60723228 -9.2529505 0 0 Z " fill="#FE99BE" transform="translate(293.8424060344696,7.217224836349487)"/>
<path d="M0 0 C0.66 0.33 1.32 0.66 2 1 C-4.14868915 9.56261897 -10.73948696 17.36827276 -18 25 C-18.62003906 25.68449219 -19.24007813 26.36898437 -19.87890625 27.07421875 C-45.74008254 54.67104446 -86.8130385 72.55143266 -124.39603138 73.92103386 C-127.24504492 73.98587291 -130.09167908 74.01268857 -132.94140625 74.0234375 C-134.50216479 74.03206881 -134.50216479 74.03206881 -136.09445381 74.04087448 C-172.84893267 74.00558027 -209.46152762 67.3349924 -245.72522509 61.97853446 C-256.07476699 60.45191318 -266.43151026 58.97689472 -276.78845584 57.50151181 C-284.72681844 56.36882224 -292.6635186 55.22455419 -300.5998795 54.07793379 C-302.51006096 53.80198994 -304.42028641 53.52635046 -306.33055568 53.25101519 C-311.73537465 52.47152603 -317.13903936 51.6848132 -322.54107475 50.88625145 C-324.17260922 50.6460494 -325.80448865 50.40817729 -327.43672562 50.17279625 C-329.66037308 49.85160305 -331.88257161 49.52179525 -334.104599 49.18960571 C-335.34730529 49.0070907 -336.59001158 48.82457569 -337.87037563 48.63652992 C-340.62116565 48.07705059 -342.60134477 47.41508055 -345 46 C-323.13367676 43.46591225 -301.25419347 43.68429925 -279.27614808 43.66114616 C-273.856816 43.65283904 -268.43753376 43.63190511 -263.01823425 43.61193848 C-248.11876433 43.55924577 -233.21926382 43.52553922 -218.3197403 43.49217987 C-204.63589198 43.4613513 -190.95208729 43.42632883 -177.26829547 43.37586927 C-170.85642847 43.35277144 -164.4446322 43.33884419 -158.03272784 43.33237457 C-154.02302527 43.3263672 -150.01337914 43.31221438 -146.00370598 43.29603004 C-144.16936108 43.29023711 -142.33500215 43.28766412 -140.5006485 43.28886986 C-130.89581235 43.29337712 -121.39593764 42.99116416 -111.82865906 42.09924316 C-110.98390009 42.02082986 -110.13914112 41.94241656 -109.26878339 41.8616271 C-100.66925533 40.98479721 -92.36234324 39.13920409 -84 37 C-82.85917969 36.72542969 -81.71835937 36.45085938 -80.54296875 36.16796875 C-62.24940834 31.41554914 -43.45836766 23.43126818 -27.7734375 12.81640625 C-25.40882036 11.26774854 -23.80328123 10.43901841 -21.125 9.75 C-15.55268947 8.06779305 -10.52972875 5.3281271 -5.40869141 2.60449219 C-3.63410069 1.67984376 -1.81943683 0.83294449 0 0 Z " fill="#3E85FE" transform="translate(767,788)"/>
<path d="M0 0 C-0.83660156 0.57105469 -1.67320313 1.14210938 -2.53515625 1.73046875 C-49.19941305 34.05109286 -76.89923502 80.85575505 -87.38671875 135.98828125 C-88.76841672 144.33076447 -89.14877619 152.7258771 -89.15821838 161.16838074 C-89.16315636 162.12924711 -89.16809434 163.09011348 -89.17318195 164.08009702 C-89.18841101 167.26588016 -89.19687754 170.45164339 -89.20532227 173.63745117 C-89.2149123 175.93461275 -89.22492302 178.2317726 -89.23532104 180.52893066 C-89.26225432 186.74088 -89.28332626 192.95283684 -89.30332303 199.16481185 C-89.32525434 205.66574058 -89.35260795 212.16664648 -89.37937927 218.66755676 C-89.42355383 229.57108579 -89.4644051 240.47462258 -89.50268555 251.37817383 C-89.54210694 262.6040946 -89.58354885 273.83000494 -89.62768555 285.0559082 C-89.63040982 285.74898821 -89.63313409 286.44206823 -89.63594092 287.15615066 C-89.64962149 290.63346242 -89.66334155 294.11077401 -89.67708123 297.58808553 C-89.79084146 326.39203501 -89.89762425 355.19600789 -90 384 C-90.33 384 -90.66 384 -91 384 C-93.48739056 355.90535917 -95.96523325 327.8098902 -98.43187714 299.71341991 C-99.57753842 286.66621243 -100.72626002 273.61928823 -101.88232422 260.57299805 C-102.89056403 249.19482952 -103.89292131 237.81616028 -104.88837385 226.43686563 C-105.41509807 220.41805286 -105.94465863 214.3995216 -106.48127747 208.38158226 C-106.98752483 202.70319132 -107.4858317 197.02415634 -107.97837257 191.34456062 C-108.15931144 189.27370025 -108.34301083 187.20307866 -108.52986717 185.13274384 C-110.03553465 168.42148054 -111.08575692 151.69317019 -108.8125 135 C-108.6117688 133.48937988 -108.6117688 133.48937988 -108.40698242 131.94824219 C-102.32209133 89.05908225 -78.85948568 48.39549626 -44.26171875 22.12890625 C-8.54970377 -4.27485189 -8.54970377 -4.27485189 0 0 Z " fill="#BADCFE" transform="translate(122,65)"/>
<path d="M0 0 C0.33 0 0.66 0 1 0 C3.46665134 22.79863877 5.53424117 45.62623187 7.53504729 68.46967745 C7.79619114 71.45084868 8.05781166 74.43197775 8.31954384 77.41309738 C9.14298299 86.79462993 9.96442246 96.17633456 10.78309363 105.5582844 C11.71994022 116.29401164 12.66378718 127.02909396 13.61349887 137.76369059 C14.35399015 146.13851883 15.08808768 154.51389279 15.81748372 162.88969457 C16.25051839 167.86064952 16.686136 172.83134296 17.12856102 177.80147171 C17.54381832 182.46823109 17.95102975 187.13562781 18.35245705 191.8035965 C18.49955699 193.49875236 18.64937422 195.1936754 18.80236816 196.88830948 C20.21498448 212.56884556 20.94376044 228.34955019 18.8125 244 C18.6117688 245.51062012 18.6117688 245.51062012 18.40698242 247.05175781 C12.01041976 292.1377248 -12.85714734 331.85562245 -48.9296875 359.22265625 C-58.0693168 365.81574761 -67.88619715 371.06091583 -78 376 C-78.66676758 376.32645508 -79.33353516 376.65291016 -80.02050781 376.98925781 C-84.62967104 379.12344299 -84.62967104 379.12344299 -88 378 C-87.22398437 377.41734375 -86.44796875 376.8346875 -85.6484375 376.234375 C-39.88003841 341.60715634 -11.00366572 296.14984312 -2 239 C-1.15022912 232.71057478 -0.84892274 226.52838384 -0.84178162 220.1860199 C-0.83684364 219.23911303 -0.83190566 218.29220616 -0.82681805 217.31660515 C-0.8115463 214.16606849 -0.80311062 211.01555204 -0.79467773 207.86499023 C-0.78509108 205.5976799 -0.77508054 203.33037132 -0.76467896 201.06306458 C-0.73770913 194.92330876 -0.71665679 188.78354531 -0.69667697 182.6437633 C-0.67476841 176.22156568 -0.6474036 169.79939134 -0.62062073 163.37721252 C-0.57642158 152.60296582 -0.53557536 141.82871243 -0.49731445 131.05444336 C-0.45790861 119.96035834 -0.41647032 108.86628397 -0.37231445 97.7722168 C-0.36959018 97.08757233 -0.36686591 96.40292785 -0.36405908 95.69753658 C-0.35037877 92.26263577 -0.33665866 88.82773512 -0.32291877 85.39283454 C-0.20911081 56.92857863 -0.10233884 28.46429931 0 0 Z " fill="#9AC7FD" transform="translate(832,420)"/>
<path d="M0 0 C1.00708008 0.1338208 2.01416016 0.2676416 3.05175781 0.40551758 C46.58841771 6.5822726 86.06589208 30.18975488 113 64.8125 C121.15679741 75.72629493 126.97848805 87.64984342 133 99.8125 C133.64388672 100.94751953 133.64388672 100.94751953 134.30078125 102.10546875 C135 103.8125 135 103.8125 134 106.8125 C133.66379639 106.36036133 133.32759277 105.90822266 132.98120117 105.44238281 C125.75548742 95.76230593 118.38884383 86.51156301 110 77.8125 C109.27683594 77.03777344 108.55367187 76.26304688 107.80859375 75.46484375 C84.40858826 51.03058388 51.32743854 33.58827954 18.75 25.5 C17.83637695 25.26949951 16.92275391 25.03899902 15.98144531 24.80151367 C-3.00512145 20.40671417 -22.3294766 19.36406728 -41.74609375 19.38012695 C-44.00576807 19.37107893 -46.26543754 19.36074446 -48.52510071 19.34924316 C-54.57515291 19.32200354 -60.62511119 19.3124343 -66.67521667 19.30638909 C-73.02928284 19.29691809 -79.38328116 19.27070869 -85.73730469 19.24638367 C-96.3748294 19.2078663 -107.01233163 19.17941549 -117.64990234 19.15893555 C-128.59296325 19.1378392 -139.53597996 19.11048985 -150.47900391 19.07495117 C-151.15672053 19.07275235 -151.83443715 19.07055352 -152.53269064 19.06828807 C-155.93354807 19.05721627 -159.33440508 19.04602386 -162.73526192 19.03477156 C-190.82346912 18.94199229 -218.91170091 18.87042751 -247 18.8125 C-247 18.4825 -247 18.1525 -247 17.8125 C-246.30664551 17.7623877 -245.61329102 17.71227539 -244.89892578 17.66064453 C-241.64068446 17.42310371 -238.38285357 17.18029888 -235.125 16.9375 C-234.03574219 16.85886719 -232.94648438 16.78023437 -231.82421875 16.69921875 C-225.40672184 16.2169791 -219.02285467 15.60909941 -212.63035583 14.87319946 C-203.58714015 13.85203579 -194.53435343 13.00510804 -185.46899414 12.20849609 C-183.80259392 12.0605695 -182.13620741 11.91248826 -180.46983337 11.76426697 C-176.00301334 11.36760625 -171.53595639 10.97368551 -167.06880498 10.58077574 C-164.26475671 10.33414324 -161.46074306 10.08712019 -158.65673637 9.84001541 C-149.84433284 9.06367166 -141.03175951 8.28929225 -132.21896368 7.51741445 C-122.11646926 6.63251459 -112.01461069 5.74075548 -101.91323382 4.84319055 C-94.05242655 4.14516587 -86.1910695 3.45356806 -78.32928365 2.76665366 C-73.65661927 2.35823339 -68.98422279 1.94719968 -64.3123951 1.52930832 C-59.91582018 1.13619684 -55.51860519 0.75118216 -51.12081337 0.37193489 C-49.52403098 0.23290831 -47.92748214 0.09116235 -46.33122635 -0.05378532 C-30.9182665 -1.45016044 -15.37979416 -2.09440286 0 0 Z " fill="#4791FE" transform="translate(664,13.1875)"/>
<path d="M0 0 C3.61195954 3.4651838 6.63491809 7.02738947 9.625 11.0625 C14.68602915 17.77244509 20.20792078 23.91787735 26 30 C26.65355469 30.70640625 27.30710937 31.4128125 27.98046875 32.140625 C50.97375359 56.2615123 83.78934967 72.9386376 115.6875 81.25 C116.56978271 81.48444824 117.45206543 81.71889648 118.36108398 81.96044922 C136.89025716 86.50106638 155.73406186 87.44798102 174.72436523 87.43237305 C176.99374413 87.44141917 179.26311819 87.45175321 181.53248596 87.46325684 C187.61358803 87.49051862 193.69459665 87.50006882 199.77575183 87.50611091 C206.16052022 87.51557595 212.54522097 87.54178503 218.9299469 87.56611633 C229.62052862 87.60464659 240.31108074 87.63309084 251.00170898 87.65356445 C262.00010833 87.67465575 272.99846365 87.70200084 283.99682617 87.73754883 C285.01827569 87.74084707 285.01827569 87.74084707 286.06036054 87.74421193 C289.47747267 87.75528361 292.89458439 87.76647604 296.31169593 87.77772844 C324.54109149 87.87053115 352.77051276 87.94208515 381 88 C381 88.33 381 88.66 381 89 C333.34892414 93.40226373 285.68774074 97.69600441 238.01644993 101.87376499 C230.91097971 102.49653751 223.80575253 103.12179802 216.70114136 103.75430298 C209.92372187 104.35761483 203.14556942 104.95203383 196.36687469 105.54084206 C193.86063658 105.75985356 191.35463782 105.98162562 188.8489151 106.20645714 C170.88322638 107.81571192 152.96165745 109.25849807 135 106.8125 C133.48937988 106.6117688 133.48937988 106.6117688 131.94824219 106.40698242 C99.92864261 101.86420806 70.49295787 88.02492844 46 67 C45.16726562 66.29101562 44.33453125 65.58203125 43.4765625 64.8515625 C26.7541438 50.23922818 14.22566263 33.13662604 5 13 C4.47277344 11.88625 3.94554688 10.7725 3.40234375 9.625 C0 2.34644847 0 2.34644847 0 0 Z " fill="#B9DCFE" transform="translate(65,744)"/>
<path d="M0 0 C1.77861964 -0.00302782 3.55723797 -0.00692043 5.33585405 -0.01159257 C10.17887244 -0.02180058 15.0218162 -0.01970925 19.86484051 -0.01541197 C25.1057024 -0.01293148 30.34654693 -0.02197538 35.58740234 -0.02944946 C45.8389594 -0.04216308 56.09049022 -0.04399423 66.34205383 -0.0416492 C74.68243032 -0.03986171 83.02279889 -0.04162492 91.36317444 -0.04587364 C92.55303331 -0.04646883 93.74289217 -0.04706402 94.96880737 -0.04767724 C97.38654928 -0.04888908 99.80429118 -0.05010322 102.22203308 -0.05131962 C124.86953066 -0.06218285 147.51701333 -0.06003876 170.16451174 -0.05393478 C190.84018447 -0.04876987 211.51581002 -0.06001199 232.19147342 -0.07903299 C253.46345373 -0.09845123 274.73541177 -0.10666022 296.00740099 -0.10290974 C307.93292322 -0.10100333 319.85840533 -0.10343016 331.78392029 -0.11762428 C341.93948947 -0.12959015 352.09499388 -0.13088518 362.25056404 -0.11883412 C367.42217107 -0.11298103 372.59365991 -0.11174583 377.76525879 -0.12383652 C418.31735745 -0.21222382 418.31735745 -0.21222382 437.83703613 3.26069641 C438.52280574 3.38260074 439.20857534 3.50450507 439.91512585 3.63010347 C443.5072397 4.28564576 447.04663276 5.05497824 450.58703613 5.94819641 C452.13149414 6.33165222 452.13149414 6.33165222 453.70715332 6.72285461 C475.79058399 12.4449669 497.42870471 22.76822622 515.83703613 36.26069641 C517.41484863 37.41311829 517.41484863 37.41311829 519.02453613 38.58882141 C526.75334814 44.33828958 533.86840809 50.61932438 540.83703613 57.26069641 C541.66719238 58.02639954 542.49734863 58.79210266 543.35266113 59.58100891 C553.62942746 69.36051235 562.33702507 81.24013074 569.83703613 93.26069641 C569.17703613 93.59069641 568.51703613 93.92069641 567.83703613 94.26069641 C567.31496582 93.47307922 566.79289551 92.68546204 566.25500488 91.87397766 C560.60839478 83.51778582 554.4655823 75.85339475 547.83703613 68.26069641 C547.15125488 67.45116516 546.46547363 66.64163391 545.75891113 65.80757141 C542.67242902 62.1843098 539.58833567 59.21626575 535.83703613 56.26069641 C535.83703613 55.60069641 535.83703613 54.94069641 535.83703613 54.26069641 C535.29305176 54.0273761 534.74906738 53.79405579 534.18859863 53.55366516 C531.18265388 51.90089487 528.81073021 49.81191307 526.21203613 47.57319641 C520.97012272 43.121622 515.55974088 39.08146827 509.83703613 35.26069641 C508.8883667 34.59554016 508.8883667 34.59554016 507.92053223 33.91694641 C502.14450474 29.93188543 496.1780869 26.75230307 489.83703613 23.76069641 C488.32798706 23.04514587 488.32798706 23.04514587 486.78845215 22.31513977 C478.31134395 18.36050312 469.76426125 15.03662075 460.83703613 12.26069641 C459.05812988 11.69608704 459.05812988 11.69608704 457.24328613 11.12007141 C436.81415014 4.95452136 415.90706317 2.9470766 394.66134644 3 C392.90574947 2.99697055 391.15015382 2.99307714 389.39456046 2.98840743 C384.6244698 2.97822067 379.85445507 2.98028518 375.08435845 2.98458803 C369.91851529 2.98707242 364.75268962 2.97801992 359.58685303 2.97055054 C349.48663511 2.95784823 339.38644384 2.9560043 329.28621928 2.9583508 C321.06888832 2.96013935 312.85156539 2.95837285 304.63423538 2.95412636 C303.46129966 2.95353117 302.28836394 2.95293598 301.07988472 2.95232276 C298.69644788 2.9511109 296.31301104 2.94989677 293.92957421 2.94868038 C271.61303147 2.93782179 249.29650386 2.9399592 226.97996028 2.94606522 C206.60834117 2.95123135 186.23676992 2.93998395 165.86516027 2.92096701 C144.90047996 2.90154791 123.93582223 2.89333983 102.97113287 2.89709026 C91.22002119 2.89899633 79.46895022 2.89657306 67.71784592 2.88237572 C57.71237588 2.87040883 47.70697161 2.86911605 37.70150058 2.88116588 C32.60683914 2.88701788 27.51229765 2.88825722 22.4176445 2.87616348 C-7.98431037 2.80898138 -36.79977535 4.46440787 -66.04968262 13.42866516 C-69.40728943 14.32599295 -72.71685008 14.83155771 -76.16296387 15.26069641 C-73.37600202 12.47373457 -70.07839521 11.65829622 -66.41296387 10.44819641 C-65.62164062 10.18683899 -64.83031738 9.92548157 -64.01501465 9.65620422 C-57.75429202 7.65150942 -51.4417112 5.99112657 -45.03796387 4.51069641 C-44.1939502 4.31242249 -43.34993652 4.11414856 -42.48034668 3.90986633 C-28.34003556 0.77427781 -14.41808714 -0.03526384 0 0 Z " fill="#28292A" transform="translate(232.1629638671875,31.739303588867188)"/>
<path d="M0 0 C1.79572326 -0.00087422 3.59144627 -0.00262917 5.38716793 -0.00517833 C10.27653159 -0.00961332 15.16580627 -0.0017017 20.05515862 0.00837779 C25.34463352 0.01706601 30.63410395 0.01408835 35.92358398 0.01257324 C45.07302018 0.01152777 54.22242771 0.01776894 63.37185669 0.02904892 C76.60016916 0.04534693 89.82846786 0.05051632 103.05678928 0.0530249 C124.52216098 0.05739527 145.98751743 0.07068648 167.45288086 0.08963013 C188.29663009 0.10800599 209.14037516 0.12215413 229.98413086 0.13064575 C231.91339863 0.13143392 231.91339863 0.13143392 233.88164151 0.13223802 C240.33443011 0.13484821 246.78721875 0.1373756 253.2400074 0.13986182 C306.71852784 0.16057382 360.19703173 0.19578138 413.67553711 0.24050903 C413.67553711 0.57050903 413.67553711 0.90050903 413.67553711 1.24050903 C412.80380993 1.24148584 411.93208275 1.24246265 411.0339396 1.24346906 C359.26771527 1.30185205 307.50153258 1.37573223 255.73535962 1.46949532 C249.50757393 1.4807623 243.27978802 1.49190094 237.05200195 1.50296021 C235.81226029 1.50516389 234.57251862 1.50736757 233.29520902 1.50963803 C213.27113259 1.54492609 193.24705618 1.56983803 173.22296026 1.59085605 C152.64753455 1.61268597 132.07214888 1.64580407 111.49675727 1.68921059 C98.81996339 1.71560393 86.14321931 1.73338978 73.46639934 1.73985507 C64.75115846 1.7451469 56.03598004 1.76148954 47.32077274 1.78617469 C42.30676387 1.80006096 37.29286646 1.80940953 32.2788372 1.8055172 C-14.17714914 1.5718049 -14.17714914 1.5718049 -59.28027344 11.54470825 C-64.84220806 13.4378784 -70.506732 14.51329267 -76.32446289 15.24050903 C-73.53750105 12.45354719 -70.23989423 11.63810884 -66.57446289 10.42800903 C-65.78313965 10.16665161 -64.99181641 9.90529419 -64.17651367 9.63601685 C-57.91579104 7.63132204 -51.60321022 5.97093919 -45.19946289 4.49050903 C-44.35544922 4.29223511 -43.51143555 4.09396118 -42.6418457 3.88967896 C-28.44158876 0.74079756 -14.47831878 -0.05314778 0 0 Z " fill="#323334" transform="translate(232.324462890625,31.759490966796875)"/>
<path d="M0 0 C25.1034905 4.94265616 49.34703958 15.86231878 70 31 C71.051875 31.76828125 72.10375 32.5365625 73.1875 33.328125 C80.91631201 39.07759317 88.03137196 45.35862797 95 52 C95.83015625 52.76570313 96.6603125 53.53140625 97.515625 54.3203125 C107.79239133 64.09981594 116.49998894 75.97943433 124 88 C123.01 88.495 123.01 88.495 122 89 C121.47792969 88.21238281 120.95585938 87.42476563 120.41796875 86.61328125 C114.77135864 78.25708941 108.62854617 70.59269834 102 63 C101.31421875 62.19046875 100.6284375 61.3809375 99.921875 60.546875 C96.83539289 56.92361339 93.75129954 53.95556934 90 51 C90 50.34 90 49.68 90 49 C89.45601562 48.76667969 88.91203125 48.53335938 88.3515625 48.29296875 C85.34561775 46.64019846 82.97369407 44.55121666 80.375 42.3125 C75.13308659 37.86092559 69.72270475 33.82077186 64 30 C63.36755371 29.5565625 62.73510742 29.113125 62.08349609 28.65625 C56.3074686 24.67118902 50.34105077 21.49160666 44 18.5 C42.99396729 18.02296631 41.98793457 17.54593262 40.95141602 17.05444336 C31.18187517 12.49687686 21.28250357 8.69156132 10.87890625 5.859375 C9.89772827 5.59145142 9.89772827 5.59145142 8.89672852 5.31811523 C7.12360132 4.84544868 5.3432312 4.40019049 3.5625 3.95703125 C2.716875 3.64121094 1.87125 3.32539062 1 3 C0.67 2.01 0.34 1.02 0 0 Z " fill="#2B323D" transform="translate(678,37)"/>
<path d="M0 0 C0.99 0.495 0.99 0.495 2 1 C-2.30345687 4.00379964 -6.70248832 6.42080108 -11.4375 8.6875 C-26.49164558 16.08037863 -42.94776239 24.67933202 -53.88916016 37.60717773 C-58.4803578 42.81170331 -63.5127487 47.61374034 -68.4375 52.5 C-69.5620833 53.61955632 -70.68643405 54.73934629 -71.81054688 55.859375 C-74.53769344 58.57561534 -77.26795907 61.28868292 -80 64 C-80.66 63.67 -81.32 63.34 -82 63 C-81.43152344 62.3709375 -80.86304687 61.741875 -80.27734375 61.09375 C-76.6487023 57.07134946 -73.02901429 53.04776371 -69.5 48.9375 C-51.75347995 28.66739224 -25.91542948 8.63847649 0 0 Z " fill="#363437" transform="translate(154,47)"/>
<path d="M0 0 C-3.29346633 2.19564422 -4.8087097 2.37154908 -8.6796875 2.7109375 C-10.39998169 2.87335937 -10.39998169 2.87335937 -12.1550293 3.0390625 C-13.38261963 3.14992187 -14.61020996 3.26078125 -15.875 3.375 C-24.88244385 4.26388106 -33.79541652 5.29357073 -42.6875 7 C-43.50395996 7.15388184 -44.32041992 7.30776367 -45.16162109 7.46630859 C-49.8940085 8.41514588 -54.4026051 9.70319811 -58.95581055 11.30419922 C-64.51774517 13.19736937 -70.18226911 14.27278364 -76 15 C-73.21303816 12.21303816 -69.91543134 11.3975998 -66.25 10.1875 C-65.45867676 9.92614258 -64.66735352 9.66478516 -63.85205078 9.39550781 C-42.88099302 2.68053686 -21.98936205 -0.45811171 0 0 Z " fill="#41383C" transform="translate(232,32)"/>
<path d="M0 0 C0.66 0.33 1.32 0.66 2 1 C-6.58 9.58 -15.16 18.16 -24 27 C-24.66 26.67 -25.32 26.34 -26 26 C-25.43152344 25.3709375 -24.86304687 24.741875 -24.27734375 24.09375 C-19.97857596 19.32850491 -15.70446027 14.546948 -11.5078125 9.69140625 C-8.56848825 6.394185 -5.81983746 4.25272465 -2 2 C-1.34 1.34 -0.68 0.68 0 0 Z " fill="#2B2D30" transform="translate(98,84)"/>
<path d="M0 0 C2.66835522 0.5973477 5.33449363 1.20267117 8 1.8125 C8.74378906 1.97814453 9.48757813 2.14378906 10.25390625 2.31445312 C15.36331217 3.49183797 20.12507025 5.06664718 25 7 C25 7.33 25 7.66 25 8 C19.2871737 8.28033763 14.58271088 7.32951819 9.125 5.6875 C7.96871094 5.36749023 7.96871094 5.36749023 6.7890625 5.04101562 C4.82651105 4.46227026 2.90729452 3.7407982 1 3 C0.67 2.01 0.34 1.02 0 0 Z " fill="#2D3643" transform="translate(678,37)"/>
<path d="M0 0 C9.30099365 0.44805451 17.95301478 1.84337234 27 4 C27 4.66 27 5.32 27 6 C24.33127404 5.67975288 21.66569358 5.34433487 19 5 C17.28103516 4.78150391 17.28103516 4.78150391 15.52734375 4.55859375 C13.68849609 4.31302734 13.68849609 4.31302734 11.8125 4.0625 C10.64332031 3.90910156 9.47414063 3.75570312 8.26953125 3.59765625 C5.26466534 3.04837969 2.77572234 2.24933642 0 1 C0 0.67 0 0.34 0 0 Z " fill="#2C2F34" transform="translate(651,33)"/>
<path d="M0 0 C0.66 0.33 1.32 0.66 2 1 C0.90648447 4.17119503 -0.0126988 5.00783543 -2.9375 6.8125 C-6 8 -6 8 -9 7 C-6.03 4.69 -3.06 2.38 0 0 Z " fill="#AACBEF" transform="translate(753,791)"/>
</svg>
