<?xml version="1.0" encoding="UTF-8"?>
<svg version="1.1" xmlns="http://www.w3.org/2000/svg" width="1612" height="480">
<path d="M0 0 C9.24 0 18.48 0 28 0 C28.33 4.29 28.66 8.58 29 13 C30.134375 11.9275 31.26875 10.855 32.4375 9.75 C44.59193638 -0.84233452 60.02640249 -0.80960671 75.36328125 -0.1953125 C80.7128462 0.20095157 85.23730568 1.59632771 90 4 C90.886875 4.44730469 91.77375 4.89460937 92.6875 5.35546875 C98.30223312 8.47197984 102.73043784 12.22148341 107 17 C110.78909952 15.25364969 113.08052496 12.99068175 116 10 C128.35523108 -1.32562849 145.31728572 -0.76493224 161.02929688 -0.1953125 C177.72891482 0.90262425 190.95339761 9.12152612 202.0390625 21.2265625 C207.92202043 28.31114588 212.13176556 37.00636345 212.12025452 46.35333252 C212.12231651 47.64894608 212.12231651 47.64894608 212.12442017 48.97073364 C212.12082489 49.91012787 212.11722961 50.84952209 212.11352539 51.81738281 C212.11367142 52.81283112 212.11381744 53.80827942 212.1139679 54.83389282 C212.11327132 58.12365906 212.1054908 61.41336865 212.09765625 64.703125 C212.09579117 66.98427296 212.09436769 69.26542132 212.09336853 71.54656982 C212.08955048 77.5503856 212.07972624 83.55417718 212.06866455 89.5579834 C212.05843515 95.6844856 212.05386763 101.81099172 212.04882812 107.9375 C212.03810336 119.95834567 212.02051229 131.97916704 212 144 C202.76 144 193.52 144 184 144 C183.98018066 141.45240967 183.96036133 138.90481934 183.93994141 136.2800293 C183.87281163 127.83023711 183.79517627 119.38056444 183.71247292 110.93091106 C183.66268518 105.81163389 183.61635455 100.69237562 183.578125 95.57299805 C183.54104966 90.62566351 183.49463147 85.6784942 183.44193649 80.73130226 C183.42351007 78.85085788 183.40835954 76.97037823 183.39665604 75.08987999 C183.70137977 54.06957872 183.70137977 54.06957872 174.17578125 35.9921875 C167.25792844 29.49565774 159.48573461 26.79497692 150 27 C140.55474589 28.25692658 134.39556796 31.60443204 127.75 38.25 C122.08007617 47.1598803 120.87117659 56.33515949 120.79467773 66.68920898 C120.78477814 67.52903824 120.77487854 68.36886749 120.76467896 69.23414612 C120.73329212 71.98810077 120.70839753 74.74207262 120.68359375 77.49609375 C120.66300448 79.4142347 120.64200751 81.33237132 120.62062073 83.25050354 C120.56560377 88.28262811 120.51610517 93.31479224 120.46777344 98.34698486 C120.41740903 103.48852023 120.36180118 108.62999862 120.30664062 113.77148438 C120.19930849 123.84760925 120.09829376 133.9237829 120 144 C110.76 144 101.52 144 92 144 C91.970271 140.17075928 91.970271 140.17075928 91.93994141 136.26416016 C91.87284845 127.80238666 91.79521221 119.34073312 91.71247292 110.87909889 C91.6626592 105.75194598 91.61632847 100.6248122 91.578125 95.49755859 C91.5410829 90.54374435 91.49467298 85.59009616 91.44193649 80.63642502 C91.42349264 78.75236314 91.40834831 76.86826581 91.39665604 74.98414993 C91.3048336 56.81433051 91.3048336 56.81433051 85 40 C84.49726563 38.92878906 84.49726563 38.92878906 83.984375 37.8359375 C82.6905413 35.42283496 81.48566602 35.10474045 79 34 C78.05125 33.34 77.1025 32.68 76.125 32 C68.14861715 26.89511498 58.96255244 26.09599063 49.8125 28.0625 C43.26498897 29.96229595 38.38295643 32.5261249 34.47265625 38.2265625 C27.89811486 50.23224678 28.66766401 63.81626038 28.5859375 77.10546875 C28.56719822 79.04031678 28.54762281 80.97515687 28.5272522 82.9099884 C28.47621635 87.96834608 28.43643896 93.02673017 28.39910889 98.08520508 C28.35888896 103.26064433 28.30787924 108.43597642 28.2578125 113.61132812 C28.16139174 123.74081713 28.07787897 133.87035145 28 144 C18.76 144 9.52 144 0 144 C0 96.48 0 48.96 0 0 Z " fill="#FFFFFF" transform="translate(344,176)"/>
<path d="M0 0 C9.24 0 18.48 0 28 0 C28.09074403 12.25777337 28.1639704 24.51531985 28.20724869 36.77335453 C28.22803095 42.46662544 28.25617581 48.15965255 28.30175781 53.8527832 C28.34555159 59.35766906 28.3692073 64.86232194 28.37950897 70.3673687 C28.3868406 72.45669656 28.40115563 74.54601319 28.42292023 76.63524055 C28.57403507 91.75677205 27.56817075 105.44253215 20.4375 119.125 C20.10089355 119.78113281 19.76428711 120.43726563 19.41748047 121.11328125 C9.29539922 139.94590746 -7.89634759 152.09210181 -28 158.5 C-49.10735361 163.50852458 -70.45807055 159.99173837 -89.09082031 149.19775391 C-106.63074597 138.19380566 -118.61480778 120.37331007 -123.375 100.3125 C-127.0122055 78.86125391 -123.2171545 57.11743755 -110.72021484 39.16113281 C-99.02843037 23.56923276 -81.79126223 11.58864369 -62.28515625 8.28125 C-40.16659133 5.55896509 -19.03911937 9.47066047 -1 23 C-0.67 15.41 -0.34 7.82 0 0 Z M-82.26171875 50 C-92.01248313 61.21885699 -96.60018607 74.13842789 -95.8515625 88.93359375 C-94.48837791 100.3389048 -88.74690143 112.39771262 -80 120 C-68.01803666 129.08008159 -55.15336608 133.29621905 -40.125 131.5 C-27.10308808 128.95372064 -15.65097412 121.71902269 -8.25 110.75 C-1.18972586 98.93451838 1.58564879 86.79120388 -1.08203125 73.1484375 C-4.9443597 59.90147269 -12.24383956 49.63158018 -24.11328125 42.5390625 C-43.37810813 32.267964 -66.24880874 34.63857884 -82.26171875 50 Z " fill="#FFFFFF" transform="translate(980,160)"/>
<path d="M0 0 C9.24 0 18.48 0 28 0 C28.33 4.29 28.66 8.58 29 13 C30.258125 11.7625 31.51625 10.525 32.8125 9.25 C44.64422571 -1.31070304 60.26108971 -0.64617971 75.20507812 -0.17480469 C80.66411672 0.16662365 85.17515032 1.48301186 90 4 C90.93585938 4.48597656 91.87171875 4.97195312 92.8359375 5.47265625 C106.19607753 13.21421684 114.71357121 25.86360101 119.03697205 40.5138855 C120.22528589 45.36214183 120.26689657 50.0256665 120.22705078 54.99609375 C120.22734283 55.96286545 120.22763489 56.92963715 120.22793579 57.92570496 C120.22655113 61.0963971 120.21103074 64.2668493 120.1953125 67.4375 C120.1915793 69.64566927 120.18873378 71.8538402 120.18673706 74.06201172 C120.17912481 79.85537339 120.15949704 85.64863374 120.1373291 91.44195557 C120.11681872 97.36102935 120.10772426 103.28011962 120.09765625 109.19921875 C120.07624883 120.7995307 120.04108636 132.39974104 120 144 C110.43 144 100.86 144 91 144 C90.9906543 141.36153076 90.98130859 138.72306152 90.97167969 136.00463867 C90.93780669 127.25543788 90.88220058 118.5064704 90.81609726 109.75745678 C90.77670572 104.45653796 90.74447648 99.1557832 90.72900391 93.85473633 C90.71378244 88.73222266 90.67923983 83.61016026 90.63169098 78.48784828 C90.61693364 76.54042817 90.60896225 74.5929436 90.60811615 72.64546776 C90.59602019 58.75567719 90.01536467 46.67293911 80 36 C74.36326169 31.03430197 66.7290964 29.17897599 59.31640625 28.8984375 C50.6370958 29.46712867 43.15899728 32.84100272 37 39 C27.44460297 50.18879823 28.53660646 66.68784876 28.48828125 80.5234375 C28.4713961 82.36432054 28.45324085 84.20519232 28.43388367 86.04605103 C28.38679346 90.84298175 28.35672093 95.63986683 28.33044434 100.43695068 C28.30042969 105.35128798 28.25397234 110.2654685 28.20898438 115.1796875 C28.12341861 124.78639342 28.05739163 134.39308443 28 144 C18.76 144 9.52 144 0 144 C0 96.48 0 48.96 0 0 Z " fill="#FFFFFF" transform="translate(1216,176)"/>
<path d="M0 0 C1.63569946 0.01353516 1.63569946 0.01353516 3.30444336 0.02734375 C21.91848464 0.42382655 39.86056057 6.73930811 53.75 19.4375 C55.08804687 20.63826172 55.08804687 20.63826172 56.453125 21.86328125 C63.39035701 28.41195245 68.20084832 35.07950669 72.75 43.4375 C73.3378125 44.45199219 73.925625 45.46648437 74.53125 46.51171875 C75.9598128 49.94118521 76.1209378 51.01015551 74.75 54.4375 C72.33464208 56.02054387 70.16714594 57.19481013 67.5625 58.37890625 C66.81046295 58.7388266 66.0584259 59.09874695 65.28359985 59.46957397 C62.78004564 60.66329198 60.26524246 61.83113747 57.75 63 C55.98002222 63.83925855 54.21099339 64.68052105 52.44287109 65.52368164 C48.73979007 67.2878577 45.03288558 69.04361328 41.32324219 70.79394531 C33.48057191 74.50312787 25.69148284 78.32114074 17.90093994 82.13824463 C13.65519727 84.21705298 9.40543912 86.28762326 5.15625 88.359375 C-1.06664125 91.39491908 -7.28829536 94.43298458 -13.50888062 97.47325134 C-17.16833583 99.2616492 -20.8282007 101.04920781 -24.48809814 102.83670044 C-26.20603481 103.67602521 -27.92377739 104.5157474 -29.64129639 105.35592651 C-34.37033334 107.66923352 -39.10439598 109.97172249 -43.84313965 112.26507568 C-46.40983835 113.51536009 -48.96697735 114.78411212 -51.52441406 116.05322266 C-53.24783051 116.89660114 -54.97145707 117.7395504 -56.6953125 118.58203125 C-57.49427948 118.98379074 -58.29324646 119.38555023 -59.11642456 119.79948425 C-59.86191559 120.16060806 -60.60740662 120.52173187 -61.37548828 120.89379883 C-62.35547287 121.37832268 -62.35547287 121.37832268 -63.35525513 121.87263489 C-65.72537132 122.57921864 -66.96961366 122.35599676 -69.25 121.4375 C-80.29468381 104.37346352 -82.13429703 81.36349893 -78.2175293 61.80078125 C-75.19246754 49.34037021 -68.90950429 36.90937296 -60.25 27.4375 C-59.44949219 26.54546875 -58.64898438 25.6534375 -57.82421875 24.734375 C-42.65295243 8.66293224 -22.09376227 -0.22136999 0 0 Z M-36.62890625 44.72265625 C-47.06274833 55.56903904 -50.33226635 67.72961066 -51.25 82.4375 C-46.41335922 80.95764281 -42.02213375 78.98591637 -37.50390625 76.75390625 C-36.75161743 76.38610046 -35.99932861 76.01829468 -35.22424316 75.63934326 C-32.75195759 74.42967439 -30.28225351 73.21482895 -27.8125 72 C-26.09125675 71.15675256 -24.36981822 70.3139036 -22.64819336 69.47143555 C-19.0407538 67.70579024 -15.43417866 65.9383958 -11.828125 64.16992188 C-3.5351602 60.10504306 4.76968935 56.0645556 13.07376099 52.02243042 C17.24625088 49.99116293 21.41802837 47.9584336 25.58984375 45.92578125 C26.98949844 45.24388928 28.38915625 44.56200371 29.78881836 43.88012695 C31.25460327 43.16602661 31.25460327 43.16602661 32.75 42.4375 C32.75 41.4475 32.75 40.4575 32.75 39.4375 C11.66855211 21.94736071 -18.00861309 26.83616775 -36.62890625 44.72265625 Z " fill="#FFFFFF" transform="translate(1111.25,159.5625)"/>
<path d="M0 0 C1.63569946 0.01353516 1.63569946 0.01353516 3.30444336 0.02734375 C21.91848464 0.42382655 39.86056057 6.73930811 53.75 19.4375 C55.08804688 20.63826172 55.08804688 20.63826172 56.453125 21.86328125 C63.39035701 28.41195245 68.20084832 35.07950669 72.75 43.4375 C73.3378125 44.45199219 73.925625 45.46648437 74.53125 46.51171875 C75.9598128 49.94118521 76.1209378 51.01015551 74.75 54.4375 C72.33464208 56.02054387 70.16714594 57.19481013 67.5625 58.37890625 C66.81046295 58.7388266 66.0584259 59.09874695 65.28359985 59.46957397 C62.78004564 60.66329198 60.26524246 61.83113747 57.75 63 C55.98002222 63.83925855 54.21099339 64.68052105 52.44287109 65.52368164 C48.73979007 67.2878577 45.03288558 69.04361328 41.32324219 70.79394531 C33.48057191 74.50312787 25.69148284 78.32114074 17.90093994 82.13824463 C13.65519727 84.21705298 9.40543912 86.28762326 5.15625 88.359375 C-1.06664125 91.39491908 -7.28829536 94.43298458 -13.50888062 97.47325134 C-17.16833583 99.2616492 -20.8282007 101.04920781 -24.48809814 102.83670044 C-26.20603481 103.67602521 -27.92377739 104.5157474 -29.64129639 105.35592651 C-34.37033334 107.66923352 -39.10439598 109.97172249 -43.84313965 112.26507568 C-46.40983835 113.51536009 -48.96697735 114.78411212 -51.52441406 116.05322266 C-53.24783051 116.89660114 -54.97145707 117.7395504 -56.6953125 118.58203125 C-57.49427948 118.98379074 -58.29324646 119.38555023 -59.11642456 119.79948425 C-59.86191559 120.16060806 -60.60740662 120.52173187 -61.37548828 120.89379883 C-62.35547287 121.37832268 -62.35547287 121.37832268 -63.35525513 121.87263489 C-65.72537132 122.57921864 -66.96961366 122.35599676 -69.25 121.4375 C-80.29468381 104.37346352 -82.13429703 81.36349893 -78.2175293 61.80078125 C-75.19246754 49.34037021 -68.90950429 36.90937296 -60.25 27.4375 C-59.44949219 26.54546875 -58.64898438 25.6534375 -57.82421875 24.734375 C-42.65295243 8.66293224 -22.09376227 -0.22136999 0 0 Z M-36.62890625 44.72265625 C-47.06274833 55.56903904 -50.33226635 67.72961066 -51.25 82.4375 C-46.41335922 80.95764281 -42.02213375 78.98591637 -37.50390625 76.75390625 C-36.75161743 76.38610046 -35.99932861 76.01829468 -35.22424316 75.63934326 C-32.75195759 74.42967439 -30.28225351 73.21482895 -27.8125 72 C-26.09125675 71.15675256 -24.36981822 70.3139036 -22.64819336 69.47143555 C-19.0407538 67.70579024 -15.43417866 65.9383958 -11.828125 64.16992188 C-3.5351602 60.10504306 4.76968935 56.0645556 13.07376099 52.02243042 C17.24625088 49.99116293 21.41802837 47.9584336 25.58984375 45.92578125 C26.98949844 45.24388928 28.38915625 44.56200371 29.78881836 43.88012695 C31.25460327 43.16602661 31.25460327 43.16602661 32.75 42.4375 C32.75 41.4475 32.75 40.4575 32.75 39.4375 C11.66855211 21.94736071 -18.00861309 26.83616775 -36.62890625 44.72265625 Z " fill="#FFFFFF" transform="translate(659.25,159.5625)"/>
<path d="M0 0 C1.63569946 0.01353516 1.63569946 0.01353516 3.30444336 0.02734375 C21.91848464 0.42382655 39.86056057 6.73930811 53.75 19.4375 C55.08804688 20.63826172 55.08804688 20.63826172 56.453125 21.86328125 C63.39035701 28.41195245 68.20084832 35.07950669 72.75 43.4375 C73.3378125 44.45199219 73.925625 45.46648437 74.53125 46.51171875 C75.9598128 49.94118521 76.1209378 51.01015551 74.75 54.4375 C72.33464208 56.02054387 70.16714594 57.19481013 67.5625 58.37890625 C66.81046295 58.7388266 66.0584259 59.09874695 65.28359985 59.46957397 C62.78004564 60.66329198 60.26524246 61.83113747 57.75 63 C55.98002222 63.83925855 54.21099339 64.68052105 52.44287109 65.52368164 C48.73979007 67.2878577 45.03288558 69.04361328 41.32324219 70.79394531 C33.48057191 74.50312787 25.69148284 78.32114074 17.90093994 82.13824463 C13.65519727 84.21705298 9.40543912 86.28762326 5.15625 88.359375 C-1.06664125 91.39491908 -7.28829536 94.43298458 -13.50888062 97.47325134 C-17.16833583 99.2616492 -20.8282007 101.04920781 -24.48809814 102.83670044 C-26.20603481 103.67602521 -27.92377739 104.5157474 -29.64129639 105.35592651 C-34.37033334 107.66923352 -39.10439598 109.97172249 -43.84313965 112.26507568 C-46.40983835 113.51536009 -48.96697735 114.78411212 -51.52441406 116.05322266 C-53.24783051 116.89660114 -54.97145707 117.7395504 -56.6953125 118.58203125 C-57.49427948 118.98379074 -58.29324646 119.38555023 -59.11642456 119.79948425 C-59.86191559 120.16060806 -60.60740662 120.52173187 -61.37548828 120.89379883 C-62.35547287 121.37832268 -62.35547287 121.37832268 -63.35525513 121.87263489 C-65.72537132 122.57921864 -66.96961366 122.35599676 -69.25 121.4375 C-80.29468381 104.37346352 -82.13429703 81.36349893 -78.2175293 61.80078125 C-75.19246754 49.34037021 -68.90950429 36.90937296 -60.25 27.4375 C-59.44949219 26.54546875 -58.64898437 25.6534375 -57.82421875 24.734375 C-42.65295243 8.66293224 -22.09376227 -0.22136999 0 0 Z M-36.62890625 44.72265625 C-47.06274833 55.56903904 -50.33226635 67.72961066 -51.25 82.4375 C-46.41335922 80.95764281 -42.02213375 78.98591637 -37.50390625 76.75390625 C-36.75161743 76.38610046 -35.99932861 76.01829468 -35.22424316 75.63934326 C-32.75195759 74.42967439 -30.28225351 73.21482895 -27.8125 72 C-26.09125675 71.15675256 -24.36981822 70.3139036 -22.64819336 69.47143555 C-19.0407538 67.70579024 -15.43417866 65.9383958 -11.828125 64.16992188 C-3.5351602 60.10504306 4.76968935 56.0645556 13.07376099 52.02243042 C17.24625088 49.99116293 21.41802837 47.9584336 25.58984375 45.92578125 C26.98949844 45.24388928 28.38915625 44.56200371 29.78881836 43.88012695 C31.25460327 43.16602661 31.25460327 43.16602661 32.75 42.4375 C32.75 41.4475 32.75 40.4575 32.75 39.4375 C11.66855211 21.94736071 -18.00861309 26.83616775 -36.62890625 44.72265625 Z " fill="#FFFFFF" transform="translate(239.25,159.5625)"/>
<path d="M0 0 C9.24 0 18.48 0 28 0 C28 13.2 28 26.4 28 40 C38.56 40 49.12 40 60 40 C60 49.24 60 58.48 60 68 C49.44 68 38.88 68 28 68 C28 102.32 28 136.64 28 172 C45.16 172 62.32 172 80 172 C80 181.24 80 190.48 80 200 C53.6 200 27.2 200 0 200 C0 156.44 0 112.88 0 68 C-6.6 68 -13.2 68 -20 68 C-20 58.76 -20 49.52 -20 40 C-13.4 40 -6.8 40 0 40 C0 26.8 0 13.6 0 0 Z " fill="#FFFFFF" transform="translate(1372,120)"/>
<path d="M0 0 C0 9.57 0 19.14 0 29 C-6.99831316 32.52010961 -13.99692023 36.03945053 -20.99931335 39.55140686 C-24.25987212 41.18697306 -27.51970178 42.82395612 -30.77783203 44.46435547 C-33.91428329 46.043424 -37.05265664 47.61860815 -40.19241714 49.19108582 C-41.97638845 50.08582608 -43.7583312 50.9846072 -45.54025269 51.88342285 C-46.62122223 52.42398315 -47.70219177 52.96454346 -48.81591797 53.52148438 C-49.77078094 54.00113647 -50.72564392 54.48078857 -51.70944214 54.97497559 C-54 56 -54 56 -56 56 C-56 89 -56 122 -56 156 C-65.24 156 -74.48 156 -84 156 C-84 105.84 -84 55.68 -84 4 C-74.76 4 -65.52 4 -56 4 C-56 11.59 -56 19.18 -56 27 C-54.37465332 26.18208984 -52.74930664 25.36417969 -51.07470703 24.52148438 C-45.71193947 21.82399385 -40.34733379 19.13019044 -34.98144722 16.43891144 C-31.72728502 14.80660547 -28.47388575 13.17281534 -25.22216797 11.53564453 C-22.08571671 9.956576 -18.94734336 8.38139185 -15.80758286 6.80891418 C-14.02361155 5.91417392 -12.2416688 5.0153928 -10.45974731 4.11657715 C-9.37877777 3.57601685 -8.29780823 3.03545654 -7.18408203 2.47851562 C-6.22921906 1.99886353 -5.27435608 1.51921143 -4.29055786 1.02502441 C-2 0 -2 0 0 0 Z " fill="#FFFFFF" transform="translate(848,164)"/>
<path d="M0 0 C9.57 0 19.14 0 29 0 C30.794375 3.7434375 30.794375 3.7434375 32.625 7.5625 C38.81005323 20.01980762 46.23781006 27.09130908 59.4375 32.375 C72.0460298 36.53008368 84.44338317 35.60981587 96.3125 29.75 C109.6187869 22.7876373 114.92435155 13.67020902 121 0 C130.57 0 140.14 0 150 0 C147.93065458 18.6241088 138.86658046 35.23614489 124.44335938 47.30224609 C105.46603351 62.16703802 84.31819178 66.57288522 60.70605469 63.72314453 C41.95162066 60.53715032 24.20313775 48.95297641 12.84375 33.86328125 C6.36587979 23.8033684 0 12.16667956 0 0 Z " fill="#FFFFFF" transform="translate(857,336)"/>
<path d="M0 0 C0.84039292 22.78398579 -3.09095775 43.5984927 -19 61 C-19.80050781 61.89203125 -20.60101562 62.7840625 -21.42578125 63.703125 C-34.74449175 77.81209184 -53.45210201 87.58937857 -73.078125 88.43359375 C-75.13528069 88.45728271 -77.19281118 88.45811215 -79.25 88.4375 C-80.88569946 88.42396484 -80.88569946 88.42396484 -82.55444336 88.41015625 C-100.37422572 88.03059133 -120.16640669 82.14660778 -133 69 C-133.69109323 67.67916225 -134.36120596 66.3469092 -135 65 C-131.39788595 63.11223459 -127.78671445 61.24322839 -124.16625977 59.39086914 C-122.93676073 58.75855072 -121.7098246 58.12122227 -120.4855957 57.47875977 C-118.72253154 56.55463641 -116.94923827 55.65011223 -115.17578125 54.74609375 C-114.11270752 54.19622803 -113.04963379 53.6463623 -111.9543457 53.07983398 C-107.96702929 51.62244199 -105.68134486 52.2820875 -101.88671875 53.90234375 C-101.16097656 54.24394531 -100.43523437 54.58554687 -99.6875 54.9375 C-86.53769832 60.28756835 -72.94557096 59.81399739 -59.8125 54.8125 C-47.76995221 49.42711031 -38.24353162 40.21165663 -33.0612793 28.04296875 C-32.00207195 25.00594083 -31.6335991 22.27491447 -31.2109375 19.09765625 C-30.23134817 15.07796211 -29.52659886 13.42057477 -26.26196289 10.81323242 C-22.72870402 8.90757743 -19.14138394 7.28267427 -15.4375 5.75 C-14.16554339 5.18234458 -12.89533401 4.610757 -11.62695312 4.03515625 C-2.54540897 0 -2.54540897 0 0 0 Z " fill="#FFFFFF" transform="translate(1192,232)"/>
<path d="M0 0 C0.84039292 22.78398579 -3.09095775 43.5984927 -19 61 C-19.80050781 61.89203125 -20.60101562 62.7840625 -21.42578125 63.703125 C-34.74449175 77.81209184 -53.45210201 87.58937857 -73.078125 88.43359375 C-75.13528069 88.45728271 -77.19281118 88.45811215 -79.25 88.4375 C-80.88569946 88.42396484 -80.88569946 88.42396484 -82.55444336 88.41015625 C-100.37422572 88.03059133 -120.16640669 82.14660778 -133 69 C-133.69109323 67.67916225 -134.36120596 66.3469092 -135 65 C-131.39788595 63.11223459 -127.78671445 61.24322839 -124.16625977 59.39086914 C-122.93676073 58.75855072 -121.7098246 58.12122227 -120.4855957 57.47875977 C-118.72253154 56.55463641 -116.94923827 55.65011223 -115.17578125 54.74609375 C-114.11270752 54.19622803 -113.04963379 53.6463623 -111.9543457 53.07983398 C-107.96702929 51.62244199 -105.68134486 52.2820875 -101.88671875 53.90234375 C-101.16097656 54.24394531 -100.43523438 54.58554687 -99.6875 54.9375 C-86.53769832 60.28756835 -72.94557096 59.81399739 -59.8125 54.8125 C-47.76995221 49.42711031 -38.24353162 40.21165663 -33.0612793 28.04296875 C-32.00207195 25.00594083 -31.6335991 22.27491447 -31.2109375 19.09765625 C-30.23134817 15.07796211 -29.52659886 13.42057477 -26.26196289 10.81323242 C-22.72870402 8.90757743 -19.14138394 7.28267427 -15.4375 5.75 C-14.16554339 5.18234458 -12.89533401 4.610757 -11.62695312 4.03515625 C-2.54540897 0 -2.54540897 0 0 0 Z " fill="#FFFFFF" transform="translate(740,232)"/>
<path d="M0 0 C0.84039292 22.78398579 -3.09095775 43.5984927 -19 61 C-19.80050781 61.89203125 -20.60101563 62.7840625 -21.42578125 63.703125 C-34.74449175 77.81209184 -53.45210201 87.58937857 -73.078125 88.43359375 C-75.13528069 88.45728271 -77.19281118 88.45811215 -79.25 88.4375 C-80.88569946 88.42396484 -80.88569946 88.42396484 -82.55444336 88.41015625 C-100.37422572 88.03059133 -120.16640669 82.14660778 -133 69 C-133.69109323 67.67916225 -134.36120596 66.3469092 -135 65 C-131.39788595 63.11223459 -127.78671445 61.24322839 -124.16625977 59.39086914 C-122.93676073 58.75855072 -121.7098246 58.12122227 -120.4855957 57.47875977 C-118.72253154 56.55463641 -116.94923827 55.65011223 -115.17578125 54.74609375 C-114.11270752 54.19622803 -113.04963379 53.6463623 -111.9543457 53.07983398 C-107.96702929 51.62244199 -105.68134486 52.2820875 -101.88671875 53.90234375 C-101.16097656 54.24394531 -100.43523437 54.58554687 -99.6875 54.9375 C-86.53769832 60.28756835 -72.94557096 59.81399739 -59.8125 54.8125 C-47.76995221 49.42711031 -38.24353162 40.21165663 -33.0612793 28.04296875 C-32.00207195 25.00594083 -31.6335991 22.27491447 -31.2109375 19.09765625 C-30.23134817 15.07796211 -29.52659886 13.42057477 -26.26196289 10.81323242 C-22.72870402 8.90757743 -19.14138394 7.28267427 -15.4375 5.75 C-14.16554339 5.18234458 -12.89533401 4.610757 -11.62695312 4.03515625 C-2.54540897 0 -2.54540897 0 0 0 Z " fill="#FFFFFF" transform="translate(320,232)"/>
</svg>
